<svg xmlns="http://www.w3.org/2000/svg" xmlns:xlink="http://www.w3.org/1999/xlink" width="45.085mm" height="133.579mm" viewBox="4010 2863.6 177.5 525.9"><title></title><style type="text/css">
*[layerid="1"] {stroke:#000000;fill:#000000;}
*[layerid="2"] {stroke:#000000;fill:#000000;}
*[layerid="3"] {stroke:#000000;fill:#000000;}
*[layerid="4"] {stroke:#000000;fill:#000000;}
*[layerid="5"] {stroke:#000000;fill:#000000;}
*[layerid="6"] {stroke:#000000;fill:#000000;}
*[layerid="7"] {stroke:#000000;fill:#000000;}
*[layerid="8"] {stroke:#000000;fill:#000000;}
*[layerid="9"] {stroke:#000000;fill:#000000;}
*[layerid="10"] {stroke:#000000;fill:#000000;}
*[layerid="11"] {stroke:#000000;fill:#000000;}
*[layerid="12"] {stroke:#000000;fill:#000000;}
*[layerid="13"] {stroke:#000000;fill:#000000;}
*[layerid="14"] {stroke:#000000;fill:#000000;}
*[layerid="15"] {stroke:#000000;fill:#000000;}
*[layerid="19"] {stroke:#000000;fill:#000000;}
*[layerid="21"] {stroke:#000000;fill:#000000;}
*[layerid="22"] {stroke:#000000;fill:#000000;}
*[layerid="23"] {stroke:#000000;fill:#000000;}
*[layerid="24"] {stroke:#000000;fill:#000000;}
*[layerid="25"] {stroke:#000000;fill:#000000;}
*[layerid="26"] {stroke:#000000;fill:#000000;}
*[layerid="27"] {stroke:#000000;fill:#000000;}
*[layerid="28"] {stroke:#000000;fill:#000000;}
*[layerid="29"] {stroke:#000000;fill:#000000;}
*[layerid="30"] {stroke:#000000;fill:#000000;}
*[layerid="31"] {stroke:#000000;fill:#000000;}
*[layerid="32"] {stroke:#000000;fill:#000000;}
*[layerid="33"] {stroke:#000000;fill:#000000;}
*[layerid="34"] {stroke:#000000;fill:#000000;}
*[layerid="35"] {stroke:#000000;fill:#000000;}
*[layerid="36"] {stroke:#000000;fill:#000000;}
*[layerid="37"] {stroke:#000000;fill:#000000;}
*[layerid="38"] {stroke:#000000;fill:#000000;}
*[layerid="39"] {stroke:#000000;fill:#000000;}
*[layerid="40"] {stroke:#000000;fill:#000000;}
*[layerid="41"] {stroke:#000000;fill:#000000;}
*[layerid="42"] {stroke:#000000;fill:#000000;}
*[layerid="43"] {stroke:#000000;fill:#000000;}
*[layerid="44"] {stroke:#000000;fill:#000000;}
*[layerid="45"] {stroke:#000000;fill:#000000;}
*[layerid="46"] {stroke:#000000;fill:#000000;}
*[layerid="47"] {stroke:#000000;fill:#000000;}
*[layerid="48"] {stroke:#000000;fill:#000000;}
*[layerid="49"] {stroke:#000000;fill:#000000;}
*[layerid="50"] {stroke:#000000;fill:#000000;}
*[layerid="51"] {stroke:#000000;fill:#000000;}
*[layerid="52"] {stroke:#000000;fill:#000000;}
*[layerid="99"] {stroke:#000000;fill:#000000;}
*[layerid="100"] {stroke:#000000;fill:#000000;}
*[layerid="101"] {stroke:#000000;fill:#000000;}
*[layerid="Hole"] {stroke:#000000;fill:#000000;}
*[layerid="DRCError"] {stroke:#000000;fill:#000000;}
*[fill="none"] {fill: none;}
*[stroke="none"] {stroke: none;}
path, polyline, polygon, line {stroke-linecap:round;}
g[c_partid="part_pad"][layerid="1"] ellipse:not([c_etype="pad_outer"]) {fill:#000000;}
g[c_partid="part_pad"][layerid="1"] polygon:not([c_etype="pad_outer"]) {fill:#000000;}
g[c_partid="part_pad"][layerid="1"] polyline:not([c_etype="pad_outer"]) {stroke:#000000;}
g[c_partid="part_pad"][layerid="2"] ellipse:not([c_etype="pad_outer"]) {fill:#000000;}
g[c_partid="part_pad"][layerid="2"] polygon:not([c_etype="pad_outer"]) {fill:#000000;}
g[c_partid="part_pad"][layerid="2"] polyline:not([c_etype="pad_outer"]) {stroke:#000000;}
g[c_partid="part_pad"][layerid="11"] ellipse:not([c_etype="pad_outer"]) {fill:#000000;}
g[c_partid="part_pad"][layerid="11"] polygon:not([c_etype="pad_outer"]) {fill:#000000;}
g[c_partid="part_pad"][layerid="11"] polyline:not([c_etype="pad_outer"]) {stroke:#000000;}
g[c_partid="part_pad"][layerid="11"] circle {fill:#FFFFFF;}
g[c_partid="part_pad"][layerid="11"] > polyline:nth-of-type(2) {stroke:#FFFFFF;}
g[c_partid="part_pad"][layerid="11"][c_shape="ELLIPSE"]  polyline:nth-last-of-type(1) {stroke:#FFFFFF;}
g[c_partid="part_pad"][layerid="11"][c_shape="RECT"]  polyline:nth-last-of-type(1) {stroke:#FFFFFF;}
g[c_partid="part_pad"][layerid="11"][c_shape="POLYGON"]  polyline:nth-last-of-type(1) {stroke:#FFFFFF;}
g[c_partid="part_via"] > * + circle, #gCurParts g[c_partid="part_via"] > * + circle {fill:#FFFFFF;}
g[c_partid="part_pad"] > polygon[c_etype="pad_outer"], #gCurParts g[c_partid="part_pad"] > polygon[c_etype="pad_outer"] {stroke-linejoin: round;stroke-miterlimit: 100;}
g[c_partid="part_hole"] > circle {fill: #FFFFFF;}path, polyline, polygon {stroke-linejoin:round;}
rect, circle, ellipse, polyline, line, polygon, path {shape-rendering:crispEdges;}
</style>
<rect x="4010" y="2863.6" width="177.5" height="525.9" fill="#FFFFFF" stroke="none"/><polyline points="4045.9844 2877.9847 4053.465 2877.9847" stroke-width="1.4"  stroke-linecap="round" fill="none" layerid="1" net="" id="gge31289" locked="0" /><polyline points="4045.666 2892.9281 4053.1465 2892.9281" stroke-width="1.4"  stroke-linecap="round" fill="none" layerid="1" net="" id="gge31294" locked="0" /><polyline points="4045.9844 3360.2685 4053.465 3360.2685" stroke-width="1.4"  stroke-linecap="round" fill="none" layerid="1" net="" id="gge31319" locked="0" /><polyline points="4045.666 3375.2119 4053.1465 3375.2119" stroke-width="1.4"  stroke-linecap="round" fill="none" layerid="1" net="" id="gge31324" locked="0" /><polyline points="4134.5671 3360.2685 4142.0477 3360.2685" stroke-width="1.4"  stroke-linecap="round" fill="none" layerid="1" net="" id="gge31359" locked="0" /><polyline points="4134.2487 3375.2119 4141.7291 3375.2119" stroke-width="1.4"  stroke-linecap="round" fill="none" layerid="1" net="" id="gge31365" locked="0" /><polyline points="4134.5671 2877.9847 4142.0477 2877.9847" stroke-width="1.4"  stroke-linecap="round" fill="none" layerid="1" net="" id="gge31395" locked="0" /><polyline points="4134.2487 2892.9281 4141.7292 2892.9281" stroke-width="1.4"  stroke-linecap="round" fill="none" layerid="1" net="" id="gge31400" locked="0" /><path d="M 4045.9844 2877.9843 A 7.4803 7.4803 0 1 0 4045.666 2892.9281" locked="0"  fill="none" stroke-width="1.4" c_helper_type="arc2" net="" layerid="1" id="gge31292" /><path d="M 4053.071 2877.9843 A 7.4803 7.4803 0 1 1 4053.3895 2892.9281" locked="0"  fill="none" stroke-width="1.4" c_helper_type="arc2" net="" layerid="1" id="gge31293" /><path d="M 4045.9844 3360.2681 A 7.4803 7.4803 0 1 0 4045.666 3375.2119" locked="0"  fill="none" stroke-width="1.4" c_helper_type="arc2" net="" layerid="1" id="gge31322" /><path d="M 4053.071 3360.2681 A 7.4803 7.4803 0 1 1 4053.3895 3375.2119" locked="0"  fill="none" stroke-width="1.4" c_helper_type="arc2" net="" layerid="1" id="gge31323" /><path d="M 4134.5671 3360.2681 A 7.4803 7.4803 0 1 0 4134.2487 3375.2119" locked="0"  fill="none" stroke-width="1.4" c_helper_type="arc2" net="" layerid="1" id="gge31363" /><path d="M 4141.6538 3360.2681 A 7.4803 7.4803 0 1 1 4141.9722 3375.2119" locked="0"  fill="none" stroke-width="1.4" c_helper_type="arc2" net="" layerid="1" id="gge31364" /><path d="M 4134.5671 2877.9843 A 7.4803 7.4803 0 1 0 4134.2487 2892.9281" locked="0"  fill="none" stroke-width="1.4" c_helper_type="arc2" net="" layerid="1" id="gge31398" /><path d="M 4141.6537 2877.9843 A 7.4803 7.4803 0 1 1 4141.9722 2892.9281" locked="0"  fill="none" stroke-width="1.4" c_helper_type="arc2" net="" layerid="1" id="gge31399" /><polyline points="4171.5747 2987.7676 4171.5747 2937.7676" stroke-width="1.9748"  stroke-linecap="round" fill="none" layerid="3" net="" id="gge85144" locked="0" /><polyline points="4112.5195 2987.7676 4112.5195 2936.5864" stroke-width="1.9748"  stroke-linecap="round" fill="none" layerid="3" net="" id="gge85141" locked="0" /><polyline points="4116.4565 2932.6494 4167.6377 2932.6494" stroke-width="1.9748"  stroke-linecap="round" fill="none" layerid="3" net="" id="gge85138" locked="0" /><polyline points="4116.4565 2991.7043 4167.6377 2991.7043" stroke-width="1.9748"  stroke-linecap="round" fill="none" layerid="3" net="" id="gge85135" locked="0" /><polyline points="4039.6851 3053.5156 4157.7954 3053.5156" stroke-width="1.5748"  stroke-linecap="round" fill="none" layerid="3" net="S$83718" id="gge83724" locked="0" /><g c_partid="part_pcbtext" c_etype="pinpart" c_origin="4084.173,2906.271" c_rotation="0" c_mirror="0" id="gge32858" locked="0" layerid="3" c_shapetype="group" ><path c_fontsize="8" c_fontfamily="" c_text="OUTS" d="M 4086.36 2898.2L4085.63 2898.56 L4084.9 2899.29 L4084.54 2900.02 L4084.17 2901.11 L4084.17 2902.93 L4084.54 2904.02 L4084.9 2904.74 L4085.63 2905.47 L4086.36 2905.84 L4087.81 2905.84 L4088.54 2905.47 L4089.26 2904.74 L4089.63 2904.02 L4089.99 2902.93 L4089.99 2901.11 L4089.63 2900.02 L4089.26 2899.29 L4088.54 2898.56 L4087.81 2898.2 L4086.36 2898.2 M 4092.39 2898.2L4092.39 2903.65 L4092.76 2904.74 L4093.48 2905.47 L4094.57 2905.84 L4095.3 2905.84 L4096.39 2905.47 L4097.12 2904.74 L4097.48 2903.65 L4097.48 2898.2 M 4102.43 2898.2L4102.43 2905.84 M 4099.88 2898.2L4104.97 2898.2 M 4112.46 2899.29L4111.74 2898.56 L4110.65 2898.2 L4109.19 2898.2 L4108.1 2898.56 L4107.37 2899.29 L4107.37 2900.02 L4107.74 2900.74 L4108.1 2901.11 L4108.83 2901.47 L4111.01 2902.2 L4111.74 2902.56 L4112.1 2902.93 L4112.46 2903.65 L4112.46 2904.74 L4111.74 2905.47 L4110.65 2905.84 L4109.19 2905.84 L4108.1 2905.47 L4107.37 2904.74 " fill="none"  stroke-width="1.378"  /></g><g c_partid="part_pcbtext" c_etype="pinpart" c_origin="4129.055,2925.563" c_rotation="0" c_mirror="0" id="gge50087" locked="0" layerid="3" c_shapetype="group" ><path c_fontsize="4.92125" c_fontfamily="" c_text="OUTPUT" d="M 4130.395 2920.598 L 4129.945 2920.818 L 4129.505 2921.268 L 4129.275 2921.718 L 4129.055 2922.388 L 4129.055 2923.508 L 4129.275 2924.178 L 4129.505 2924.628 L 4129.945 2925.068 L 4130.395 2925.298 L 4131.295 2925.298 L 4131.735 2925.068 L 4132.185 2924.628 L 4132.415 2924.178 L 4132.635 2923.508 L 4132.635 2922.388 L 4132.415 2921.718 L 4132.185 2921.268 L 4131.735 2920.818 L 4131.295 2920.598 L 4130.395 2920.598 M 4134.115 2920.598 L 4134.115 2923.948 L 4134.335 2924.628 L 4134.785 2925.068 L 4135.455 2925.298 L 4135.895 2925.298 L 4136.575 2925.068 L 4137.015 2924.628 L 4137.245 2923.948 L 4137.245 2920.598 M 4140.285 2920.598 L 4140.285 2925.298 M 4138.715 2920.598 L 4141.855 2920.598 M 4143.325 2920.598 L 4143.325 2925.298 M 4143.325 2920.598 L 4145.335 2920.598 L 4146.015 2920.818 L 4146.235 2921.048 L 4146.455 2921.488 L 4146.455 2922.158 L 4146.235 2922.608 L 4146.015 2922.838 L 4145.335 2923.058 L 4143.325 2923.058 M 4147.935 2920.598 L 4147.935 2923.948 L 4148.155 2924.628 L 4148.605 2925.068 L 4149.275 2925.298 L 4149.725 2925.298 L 4150.395 2925.068 L 4150.845 2924.628 L 4151.065 2923.948 L 4151.065 2920.598 M 4154.105 2920.598 L 4154.105 2925.298 M 4152.545 2920.598 L 4155.675 2920.598" fill="none"  stroke-width="1.1811"  /></g><g c_partid="part_pcbtext" c_etype="pinpart" c_origin="4114.095,3157.059" c_rotation="0" c_mirror="0" id="gge54965" locked="0" layerid="3" c_shapetype="group" ><path c_fontsize="4.92125" c_fontfamily="" c_text="MASTER" d="M 4114.0935 3152.0929 L 4114.0935 3156.7929 M 4114.0935 3152.0929 L 4115.8835 3156.7929 M 4117.6735 3152.0929 L 4115.8835 3156.7929 M 4117.6735 3152.0929 L 4117.6735 3156.7929 M 4120.9435 3152.0929 L 4119.1535 3156.7929 M 4120.9435 3152.0929 L 4122.7335 3156.7929 M 4119.8235 3155.2229 L 4122.0535 3155.2229 M 4127.3335 3152.7629 L 4126.8935 3152.3129 L 4126.2135 3152.0929 L 4125.3235 3152.0929 L 4124.6535 3152.3129 L 4124.2035 3152.7629 L 4124.2035 3153.2129 L 4124.4335 3153.6629 L 4124.6535 3153.8829 L 4125.1035 3154.1029 L 4126.4435 3154.5529 L 4126.8935 3154.7729 L 4127.1135 3155.0029 L 4127.3335 3155.4529 L 4127.3335 3156.1229 L 4126.8935 3156.5629 L 4126.2135 3156.7929 L 4125.3235 3156.7929 L 4124.6535 3156.5629 L 4124.2035 3156.1229 M 4130.3835 3152.0929 L 4130.3835 3156.7929 M 4128.8135 3152.0929 L 4131.9435 3152.0929 M 4133.4235 3152.0929 L 4133.4235 3156.7929 M 4133.4235 3152.0929 L 4136.3335 3152.0929 M 4133.4235 3154.3329 L 4135.2135 3154.3329 M 4133.4235 3156.7929 L 4136.3335 3156.7929 M 4137.8035 3152.0929 L 4137.8035 3156.7929 M 4137.8035 3152.0929 L 4139.8235 3152.0929 L 4140.4935 3152.3129 L 4140.7135 3152.5429 L 4140.9335 3152.9829 L 4140.9335 3153.4329 L 4140.7135 3153.8829 L 4140.4935 3154.1029 L 4139.8235 3154.3329 L 4137.8035 3154.3329 M 4139.3735 3154.3329 L 4140.9335 3156.7929" fill="none"  stroke-width="1.1811"  /></g><g c_partid="part_pcbtext" c_etype="pinpart" c_origin="4046.772,2936.586" c_rotation="0" c_mirror="0" id="gge56228" locked="0" layerid="3" c_shapetype="group" ><path c_fontsize="4.92125" c_fontfamily="" c_text="INPUT" d="M 4046.7755 2931.6187 L 4046.7755 2936.3187 M 4048.2455 2931.6187 L 4048.2455 2936.3187 M 4048.2455 2931.6187 L 4051.3755 2936.3187 M 4051.3755 2931.6187 L 4051.3755 2936.3187 M 4052.8555 2931.6187 L 4052.8555 2936.3187 M 4052.8555 2931.6187 L 4054.8655 2931.6187 L 4055.5355 2931.8487 L 4055.7655 2932.0687 L 4055.9855 2932.5187 L 4055.9855 2933.1887 L 4055.7655 2933.6287 L 4055.5355 2933.8587 L 4054.8655 2934.0787 L 4052.8555 2934.0787 M 4057.4655 2931.6187 L 4057.4655 2934.9787 L 4057.6855 2935.6487 L 4058.1355 2936.0987 L 4058.8055 2936.3187 L 4059.2555 2936.3187 L 4059.9255 2936.0987 L 4060.3755 2935.6487 L 4060.5955 2934.9787 L 4060.5955 2931.6187 M 4063.6355 2931.6187 L 4063.6355 2936.3187 M 4062.0755 2931.6187 L 4065.2055 2931.6187" fill="none"  stroke-width="1.1811"  /></g><g c_partid="part_pcbtext" c_etype="pinpart" c_origin="4049.134,3078.712" c_rotation="0" c_mirror="0" id="gge56270" locked="0" layerid="3" c_shapetype="group" ><path c_fontsize="4.92125" c_fontfamily="" c_text="CUE" d="M 4052.4926 3074.8619 L 4052.2626 3074.4219 L 4051.8226 3073.9719 L 4051.3726 3073.7419 L 4050.4726 3073.7419 L 4050.0326 3073.9719 L 4049.5826 3074.4219 L 4049.3626 3074.8619 L 4049.1326 3075.5319 L 4049.1326 3076.6519 L 4049.3626 3077.3219 L 4049.5826 3077.7719 L 4050.0326 3078.2219 L 4050.4726 3078.4419 L 4051.3726 3078.4419 L 4051.8226 3078.2219 L 4052.2626 3077.7719 L 4052.4926 3077.3219 M 4053.9626 3073.7419 L 4053.9626 3077.1019 L 4054.1926 3077.7719 L 4054.6326 3078.2219 L 4055.3126 3078.4419 L 4055.7526 3078.4419 L 4056.4226 3078.2219 L 4056.8726 3077.7719 L 4057.0926 3077.1019 L 4057.0926 3073.7419 M 4058.5726 3073.7419 L 4058.5726 3078.4419 M 4058.5726 3073.7419 L 4061.4826 3073.7419 M 4058.5726 3075.9819 L 4060.3626 3075.9819 M 4058.5726 3078.4419 L 4061.4826 3078.4419" fill="none"  stroke-width="1.1811"  /></g><g c_partid="part_pcbtext" c_etype="pinpart" c_origin="4118.819,3075.169" c_rotation="0" c_mirror="0" id="gge62885" locked="0" layerid="3" c_shapetype="group" ><path c_fontsize="4.92125" c_fontfamily="" c_text="CUE/MASTER" d="M 4122.1727 3071.3166 L 4121.9527 3070.8766 L 4121.5027 3070.4266 L 4121.0527 3070.2066 L 4120.1627 3070.2066 L 4119.7127 3070.4266 L 4119.2627 3070.8766 L 4119.0427 3071.3166 L 4118.8227 3071.9966 L 4118.8227 3073.1066 L 4119.0427 3073.7866 L 4119.2627 3074.2266 L 4119.7127 3074.6766 L 4120.1627 3074.8966 L 4121.0527 3074.8966 L 4121.5027 3074.6766 L 4121.9527 3074.2266 L 4122.1727 3073.7866 M 4123.6527 3070.2066 L 4123.6527 3073.5566 L 4123.8727 3074.2266 L 4124.3227 3074.6766 L 4124.9927 3074.8966 L 4125.4427 3074.8966 L 4126.1127 3074.6766 L 4126.5627 3074.2266 L 4126.7827 3073.5566 L 4126.7827 3070.2066 M 4128.2627 3070.2066 L 4128.2627 3074.8966 M 4128.2627 3070.2066 L 4131.1627 3070.2066 M 4128.2627 3072.4366 L 4130.0527 3072.4366 M 4128.2627 3074.8966 L 4131.1627 3074.8966 M 4136.6727 3069.3066 L 4132.6427 3076.4666 M 4138.1427 3070.2066 L 4138.1427 3074.8966 M 4138.1427 3070.2066 L 4139.9327 3074.8966 M 4141.7227 3070.2066 L 4139.9327 3074.8966 M 4141.7227 3070.2066 L 4141.7227 3074.8966 M 4144.9927 3070.2066 L 4143.2027 3074.8966 M 4144.9927 3070.2066 L 4146.7827 3074.8966 M 4143.8727 3073.3366 L 4146.1127 3073.3366 M 4151.3927 3070.8766 L 4150.9427 3070.4266 L 4150.2727 3070.2066 L 4149.3727 3070.2066 L 4148.7027 3070.4266 L 4148.2527 3070.8766 L 4148.2527 3071.3166 L 4148.4827 3071.7666 L 4148.7027 3071.9966 L 4149.1527 3072.2166 L 4150.4927 3072.6666 L 4150.9427 3072.8866 L 4151.1627 3073.1066 L 4151.3927 3073.5566 L 4151.3927 3074.2266 L 4150.9427 3074.6766 L 4150.2727 3074.8966 L 4149.3727 3074.8966 L 4148.7027 3074.6766 L 4148.2527 3074.2266 M 4154.4327 3070.2066 L 4154.4327 3074.8966 M 4152.8627 3070.2066 L 4155.9927 3070.2066 M 4157.4727 3070.2066 L 4157.4727 3074.8966 M 4157.4727 3070.2066 L 4160.3827 3070.2066 M 4157.4727 3072.4366 L 4159.2627 3072.4366 M 4157.4727 3074.8966 L 4160.3827 3074.8966 M 4161.8627 3070.2066 L 4161.8627 3074.8966 M 4161.8627 3070.2066 L 4163.8727 3070.2066 L 4164.5427 3070.4266 L 4164.7627 3070.6466 L 4164.9927 3071.0966 L 4164.9927 3071.5466 L 4164.7627 3071.9966 L 4164.5427 3072.2166 L 4163.8727 3072.4366 L 4161.8627 3072.4366 M 4163.4227 3072.4366 L 4164.9927 3074.8966" fill="none"  stroke-width="1.1811"  /></g><g c_partid="part_pcbtext" c_etype="" c_origin="4049.528,2867.969" c_rotation="0" c_mirror="0" id="gge31287" locked="0" layerid="3" c_shapetype="group" display="none"><path c_fontsize="4.5" c_fontfamily="" c_text="HoleOutline" d="M 4049.5302 2863.4317 L 4049.5302 2867.7217 M 4052.3901 2863.4317 L 4052.3901 2867.7217 M 4049.5302 2865.4717 L 4052.3901 2865.4717 M 4054.7602 2864.8616 L 4054.3501 2865.0616 L 4053.9502 2865.4717 L 4053.7402 2866.0918 L 4053.7402 2866.4915 L 4053.9502 2867.1116 L 4054.3501 2867.5216 L 4054.7602 2867.7217 L 4055.3801 2867.7217 L 4055.7901 2867.5216 L 4056.2002 2867.1116 L 4056.4001 2866.4915 L 4056.4001 2866.0918 L 4056.2002 2865.4717 L 4055.7901 2865.0616 L 4055.3801 2864.8616 L 4054.7602 2864.8616 M 4057.7501 2863.4317 L 4057.7501 2867.7217 M 4059.1001 2866.0918 L 4061.5502 2866.0918 L 4061.5502 2865.6817 L 4061.3501 2865.2716 L 4061.1501 2865.0616 L 4060.7402 2864.8616 L 4060.1201 2864.8616 L 4059.7101 2865.0616 L 4059.3002 2865.4717 L 4059.1001 2866.0918 L 4059.1001 2866.4915 L 4059.3002 2867.1116 L 4059.7101 2867.5216 L 4060.1201 2867.7217 L 4060.7402 2867.7217 L 4061.1501 2867.5216 L 4061.5502 2867.1116 M 4064.1301 2863.4317 L 4063.7202 2863.6318 L 4063.3101 2864.0418 L 4063.1101 2864.4515 L 4062.9001 2865.0616 L 4062.9001 2866.0918 L 4063.1101 2866.7015 L 4063.3101 2867.1116 L 4063.7202 2867.5216 L 4064.1301 2867.7217 L 4064.9502 2867.7217 L 4065.3601 2867.5216 L 4065.7701 2867.1116 L 4065.9702 2866.7015 L 4066.1802 2866.0918 L 4066.1802 2865.0616 L 4065.9702 2864.4515 L 4065.7701 2864.0418 L 4065.3601 2863.6318 L 4064.9502 2863.4317 L 4064.1301 2863.4317 M 4067.5302 2864.8616 L 4067.5302 2866.9016 L 4067.7301 2867.5216 L 4068.1401 2867.7217 L 4068.7501 2867.7217 L 4069.1601 2867.5216 L 4069.7802 2866.9016 M 4069.7802 2864.8616 L 4069.7802 2867.7217 M 4071.7402 2863.4317 L 4071.7402 2866.9016 L 4071.9502 2867.5216 L 4072.3501 2867.7217 L 4072.7602 2867.7217 M 4071.1301 2864.8616 L 4072.5601 2864.8616 M 4074.1101 2863.4317 L 4074.1101 2867.7217 M 4075.4601 2863.4317 L 4075.6701 2863.6318 L 4075.8701 2863.4317 L 4075.6701 2863.2217 L 4075.4601 2863.4317 M 4075.6701 2864.8616 L 4075.6701 2867.7217 M 4077.2202 2864.8616 L 4077.2202 2867.7217 M 4077.2202 2865.6817 L 4077.8401 2865.0616 L 4078.2501 2864.8616 L 4078.8601 2864.8616 L 4079.2701 2865.0616 L 4079.4702 2865.6817 L 4079.4702 2867.7217 M 4080.8201 2866.0918 L 4083.2802 2866.0918 L 4083.2802 2865.6817 L 4083.0701 2865.2716 L 4082.8701 2865.0616 L 4082.4601 2864.8616 L 4081.8501 2864.8616 L 4081.4401 2865.0616 L 4081.0302 2865.4717 L 4080.8201 2866.0918 L 4080.8201 2866.4915 L 4081.0302 2867.1116 L 4081.4401 2867.5216 L 4081.8501 2867.7217 L 4082.4601 2867.7217 L 4082.8701 2867.5216 L 4083.2802 2867.1116" fill="none"  stroke-width="0.7" c_note="note_name" /></g><g c_partid="part_pcbtext" c_etype="" c_origin="4049.528,2872.969" c_rotation="0" c_mirror="0" id="gge31290" locked="0" layerid="3" c_shapetype="group" display="none"><path c_fontsize="4.5" c_fontfamily="" c_text="H4" d="M 4049.5242 2868.4232 L 4049.5242 2872.7232 M 4052.3942 2868.4232 L 4052.3942 2872.7232 M 4049.5242 2870.4732 L 4052.3942 2870.4732 M 4055.7842 2868.4232 L 4053.7442 2871.2932 L 4056.8142 2871.2932 M 4055.7842 2868.4232 L 4055.7842 2872.7232" fill="none"  stroke-width="0.7" c_note="note_pre" /></g><g c_partid="part_pcbtext" c_etype="" c_origin="4049.528,3350.253" c_rotation="0" c_mirror="0" id="gge31317" locked="0" layerid="3" c_shapetype="group" display="none"><path c_fontsize="4.5" c_fontfamily="" c_text="HoleOutline" d="M 4049.5302 3345.7155 L 4049.5302 3350.0055 M 4052.3901 3345.7155 L 4052.3901 3350.0055 M 4049.5302 3347.7555 L 4052.3901 3347.7555 M 4054.7602 3347.1454 L 4054.3501 3347.3454 L 4053.9502 3347.7555 L 4053.7402 3348.3756 L 4053.7402 3348.7753 L 4053.9502 3349.3954 L 4054.3501 3349.8054 L 4054.7602 3350.0055 L 4055.3801 3350.0055 L 4055.7901 3349.8054 L 4056.2002 3349.3954 L 4056.4001 3348.7753 L 4056.4001 3348.3756 L 4056.2002 3347.7555 L 4055.7901 3347.3454 L 4055.3801 3347.1454 L 4054.7602 3347.1454 M 4057.7501 3345.7155 L 4057.7501 3350.0055 M 4059.1001 3348.3756 L 4061.5502 3348.3756 L 4061.5502 3347.9655 L 4061.3501 3347.5554 L 4061.1501 3347.3454 L 4060.7402 3347.1454 L 4060.1201 3347.1454 L 4059.7101 3347.3454 L 4059.3002 3347.7555 L 4059.1001 3348.3756 L 4059.1001 3348.7753 L 4059.3002 3349.3954 L 4059.7101 3349.8054 L 4060.1201 3350.0055 L 4060.7402 3350.0055 L 4061.1501 3349.8054 L 4061.5502 3349.3954 M 4064.1301 3345.7155 L 4063.7202 3345.9156 L 4063.3101 3346.3256 L 4063.1101 3346.7353 L 4062.9001 3347.3454 L 4062.9001 3348.3756 L 4063.1101 3348.9853 L 4063.3101 3349.3954 L 4063.7202 3349.8054 L 4064.1301 3350.0055 L 4064.9502 3350.0055 L 4065.3601 3349.8054 L 4065.7701 3349.3954 L 4065.9702 3348.9853 L 4066.1802 3348.3756 L 4066.1802 3347.3454 L 4065.9702 3346.7353 L 4065.7701 3346.3256 L 4065.3601 3345.9156 L 4064.9502 3345.7155 L 4064.1301 3345.7155 M 4067.5302 3347.1454 L 4067.5302 3349.1854 L 4067.7301 3349.8054 L 4068.1401 3350.0055 L 4068.7501 3350.0055 L 4069.1601 3349.8054 L 4069.7802 3349.1854 M 4069.7802 3347.1454 L 4069.7802 3350.0055 M 4071.7402 3345.7155 L 4071.7402 3349.1854 L 4071.9502 3349.8054 L 4072.3501 3350.0055 L 4072.7602 3350.0055 M 4071.1301 3347.1454 L 4072.5601 3347.1454 M 4074.1101 3345.7155 L 4074.1101 3350.0055 M 4075.4601 3345.7155 L 4075.6701 3345.9156 L 4075.8701 3345.7155 L 4075.6701 3345.5055 L 4075.4601 3345.7155 M 4075.6701 3347.1454 L 4075.6701 3350.0055 M 4077.2202 3347.1454 L 4077.2202 3350.0055 M 4077.2202 3347.9655 L 4077.8401 3347.3454 L 4078.2501 3347.1454 L 4078.8601 3347.1454 L 4079.2701 3347.3454 L 4079.4702 3347.9655 L 4079.4702 3350.0055 M 4080.8201 3348.3756 L 4083.2802 3348.3756 L 4083.2802 3347.9655 L 4083.0701 3347.5554 L 4082.8701 3347.3454 L 4082.4601 3347.1454 L 4081.8501 3347.1454 L 4081.4401 3347.3454 L 4081.0302 3347.7555 L 4080.8201 3348.3756 L 4080.8201 3348.7753 L 4081.0302 3349.3954 L 4081.4401 3349.8054 L 4081.8501 3350.0055 L 4082.4601 3350.0055 L 4082.8701 3349.8054 L 4083.2802 3349.3954" fill="none"  stroke-width="0.7" c_note="note_name" /></g><g c_partid="part_pcbtext" c_etype="" c_origin="4049.528,3355.253" c_rotation="0" c_mirror="0" id="gge31320" locked="0" layerid="3" c_shapetype="group" display="none"><path c_fontsize="4.5" c_fontfamily="" c_text="H5" d="M 4049.5315 3350.7081 L 4049.5315 3355.0081 M 4052.3915 3350.7081 L 4052.3915 3355.0081 M 4049.5315 3352.7581 L 4052.3915 3352.7581 M 4056.1915 3350.7081 L 4054.1515 3350.7081 L 4053.9415 3352.5481 L 4054.1515 3352.3481 L 4054.7615 3352.1481 L 4055.3815 3352.1481 L 4055.9915 3352.3481 L 4056.4015 3352.7581 L 4056.6015 3353.3681 L 4056.6015 3353.7781 L 4056.4015 3354.3981 L 4055.9915 3354.7981 L 4055.3815 3355.0081 L 4054.7615 3355.0081 L 4054.1515 3354.7981 L 4053.9415 3354.5981 L 4053.7415 3354.1881" fill="none"  stroke-width="0.7" c_note="note_pre" /></g><g c_partid="part_pcbtext" c_etype="" c_origin="4138.111,3350.253" c_rotation="0" c_mirror="0" id="gge31357" locked="0" layerid="3" c_shapetype="group" display="none"><path c_fontsize="4.5" c_fontfamily="" c_text="HoleOutline" d="M 4138.1129 3345.7155 L 4138.1129 3350.0055 M 4140.9728 3345.7155 L 4140.9728 3350.0055 M 4138.1129 3347.7555 L 4140.9728 3347.7555 M 4143.3431 3347.1454 L 4142.933 3347.3454 L 4142.5329 3347.7555 L 4142.3229 3348.3756 L 4142.3229 3348.7753 L 4142.5329 3349.3954 L 4142.933 3349.8054 L 4143.3431 3350.0055 L 4143.9628 3350.0055 L 4144.3728 3349.8054 L 4144.7829 3349.3954 L 4144.9827 3348.7753 L 4144.9827 3348.3756 L 4144.7829 3347.7555 L 4144.3728 3347.3454 L 4143.9628 3347.1454 L 4143.3431 3347.1454 M 4146.3328 3345.7155 L 4146.3328 3350.0055 M 4147.683 3348.3756 L 4150.1331 3348.3756 L 4150.1331 3347.9655 L 4149.933 3347.5554 L 4149.7327 3347.3454 L 4149.3229 3347.1454 L 4148.7029 3347.1454 L 4148.2928 3347.3454 L 4147.8831 3347.7555 L 4147.683 3348.3756 L 4147.683 3348.7753 L 4147.8831 3349.3954 L 4148.2928 3349.8054 L 4148.7029 3350.0055 L 4149.3229 3350.0055 L 4149.7327 3349.8054 L 4150.1331 3349.3954 M 4152.7128 3345.7155 L 4152.3031 3345.9156 L 4151.893 3346.3256 L 4151.6929 3346.7353 L 4151.4827 3347.3454 L 4151.4827 3348.3756 L 4151.6929 3348.9853 L 4151.893 3349.3954 L 4152.3031 3349.8054 L 4152.7128 3350.0055 L 4153.5329 3350.0055 L 4153.9429 3349.8054 L 4154.353 3349.3954 L 4154.5531 3348.9853 L 4154.7631 3348.3756 L 4154.7631 3347.3454 L 4154.5531 3346.7353 L 4154.353 3346.3256 L 4153.9429 3345.9156 L 4153.5329 3345.7155 L 4152.7128 3345.7155 M 4156.1129 3347.1454 L 4156.1129 3349.1854 L 4156.313 3349.8054 L 4156.7228 3350.0055 L 4157.3328 3350.0055 L 4157.7429 3349.8054 L 4158.3629 3349.1854 M 4158.3629 3347.1454 L 4158.3629 3350.0055 M 4160.3229 3345.7155 L 4160.3229 3349.1854 L 4160.5329 3349.8054 L 4160.933 3350.0055 L 4161.3431 3350.0055 M 4159.7128 3347.1454 L 4161.143 3347.1454 M 4162.6929 3345.7155 L 4162.6929 3350.0055 M 4164.0428 3345.7155 L 4164.2528 3345.9156 L 4164.4529 3345.7155 L 4164.2528 3345.5055 L 4164.0428 3345.7155 M 4164.2528 3347.1454 L 4164.2528 3350.0055 M 4165.8031 3347.1454 L 4165.8031 3350.0055 M 4165.8031 3347.9655 L 4166.4228 3347.3454 L 4166.8328 3347.1454 L 4167.4429 3347.1454 L 4167.853 3347.3454 L 4168.0531 3347.9655 L 4168.0531 3350.0055 M 4169.4029 3348.3756 L 4171.8629 3348.3756 L 4171.8629 3347.9655 L 4171.6529 3347.5554 L 4171.4529 3347.3454 L 4171.0428 3347.1454 L 4170.433 3347.1454 L 4170.023 3347.3454 L 4169.6129 3347.7555 L 4169.4029 3348.3756 L 4169.4029 3348.7753 L 4169.6129 3349.3954 L 4170.023 3349.8054 L 4170.433 3350.0055 L 4171.0428 3350.0055 L 4171.4529 3349.8054 L 4171.8629 3349.3954" fill="none"  stroke-width="0.7" c_note="note_name" /></g><g c_partid="part_pcbtext" c_etype="" c_origin="4138.111,3355.253" c_rotation="0" c_mirror="0" id="gge31360" locked="0" layerid="3" c_shapetype="group" display="none"><path c_fontsize="4.5" c_fontfamily="" c_text="H6" d="M 4138.1115 3350.7136 L 4138.1115 3355.0036 M 4140.9713 3350.7136 L 4140.9713 3355.0036 M 4138.1115 3352.7536 L 4140.9713 3352.7536 M 4144.7815 3351.3236 L 4144.5715 3350.9136 L 4143.9614 3350.7136 L 4143.5513 3350.7136 L 4142.9413 3350.9136 L 4142.5315 3351.5336 L 4142.3215 3352.5536 L 4142.3215 3353.5736 L 4142.5315 3354.3936 L 4142.9413 3354.8036 L 4143.5513 3355.0036 L 4143.7514 3355.0036 L 4144.3714 3354.8036 L 4144.7815 3354.3936 L 4144.9813 3353.7836 L 4144.9813 3353.5736 L 4144.7815 3352.9636 L 4144.3714 3352.5536 L 4143.7514 3352.3436 L 4143.5513 3352.3436 L 4142.9413 3352.5536 L 4142.5315 3352.9636 L 4142.3215 3353.5736" fill="none"  stroke-width="0.7" c_note="note_pre" /></g><g c_partid="part_pcbtext" c_etype="" c_origin="4138.111,2867.969" c_rotation="0" c_mirror="0" id="gge31393" locked="0" layerid="3" c_shapetype="group" display="none"><path c_fontsize="4.5" c_fontfamily="" c_text="HoleOutline" d="M 4138.1129 2863.4317 L 4138.1129 2867.7217 M 4140.9728 2863.4317 L 4140.9728 2867.7217 M 4138.1129 2865.4717 L 4140.9728 2865.4717 M 4143.3429 2864.8616 L 4142.9328 2865.0616 L 4142.5329 2865.4717 L 4142.3229 2866.0918 L 4142.3229 2866.4915 L 4142.5329 2867.1116 L 4142.9328 2867.5216 L 4143.3429 2867.7217 L 4143.9628 2867.7217 L 4144.3728 2867.5216 L 4144.7829 2867.1116 L 4144.9828 2866.4915 L 4144.9828 2866.0918 L 4144.7829 2865.4717 L 4144.3728 2865.0616 L 4143.9628 2864.8616 L 4143.3429 2864.8616 M 4146.3328 2863.4317 L 4146.3328 2867.7217 M 4147.6828 2866.0918 L 4150.1329 2866.0918 L 4150.1329 2865.6817 L 4149.9328 2865.2716 L 4149.7328 2865.0616 L 4149.3229 2864.8616 L 4148.7028 2864.8616 L 4148.2928 2865.0616 L 4147.8829 2865.4717 L 4147.6828 2866.0918 L 4147.6828 2866.4915 L 4147.8829 2867.1116 L 4148.2928 2867.5216 L 4148.7028 2867.7217 L 4149.3229 2867.7217 L 4149.7328 2867.5216 L 4150.1329 2867.1116 M 4152.7128 2863.4317 L 4152.3029 2863.6318 L 4151.8928 2864.0418 L 4151.6928 2864.4515 L 4151.4828 2865.0616 L 4151.4828 2866.0918 L 4151.6928 2866.7015 L 4151.8928 2867.1116 L 4152.3029 2867.5216 L 4152.7128 2867.7217 L 4153.5329 2867.7217 L 4153.9428 2867.5216 L 4154.3528 2867.1116 L 4154.5529 2866.7015 L 4154.7629 2866.0918 L 4154.7629 2865.0616 L 4154.5529 2864.4515 L 4154.3528 2864.0418 L 4153.9428 2863.6318 L 4153.5329 2863.4317 L 4152.7128 2863.4317 M 4156.1129 2864.8616 L 4156.1129 2866.9016 L 4156.3128 2867.5216 L 4156.7228 2867.7217 L 4157.3328 2867.7217 L 4157.7428 2867.5216 L 4158.3629 2866.9016 M 4158.3629 2864.8616 L 4158.3629 2867.7217 M 4160.3229 2863.4317 L 4160.3229 2866.9016 L 4160.5329 2867.5216 L 4160.9328 2867.7217 L 4161.3429 2867.7217 M 4159.7128 2864.8616 L 4161.1428 2864.8616 M 4162.6928 2863.4317 L 4162.6928 2867.7217 M 4164.0428 2863.4317 L 4164.2528 2863.6318 L 4164.4528 2863.4317 L 4164.2528 2863.2217 L 4164.0428 2863.4317 M 4164.2528 2864.8616 L 4164.2528 2867.7217 M 4165.8029 2864.8616 L 4165.8029 2867.7217 M 4165.8029 2865.6817 L 4166.4228 2865.0616 L 4166.8328 2864.8616 L 4167.4428 2864.8616 L 4167.8528 2865.0616 L 4168.0529 2865.6817 L 4168.0529 2867.7217 M 4169.4028 2866.0918 L 4171.8629 2866.0918 L 4171.8629 2865.6817 L 4171.6528 2865.2716 L 4171.4528 2865.0616 L 4171.0428 2864.8616 L 4170.4328 2864.8616 L 4170.0228 2865.0616 L 4169.6129 2865.4717 L 4169.4028 2866.0918 L 4169.4028 2866.4915 L 4169.6129 2867.1116 L 4170.0228 2867.5216 L 4170.4328 2867.7217 L 4171.0428 2867.7217 L 4171.4528 2867.5216 L 4171.8629 2867.1116" fill="none"  stroke-width="0.7" c_note="note_name" /></g><g c_partid="part_pcbtext" c_etype="" c_origin="4138.111,2872.969" c_rotation="0" c_mirror="0" id="gge31396" locked="0" layerid="3" c_shapetype="group" display="none"><path c_fontsize="4.5" c_fontfamily="" c_text="H7" d="M 4138.1116 2868.4258 L 4138.1116 2872.7258 M 4140.9716 2868.4258 L 4140.9716 2872.7258 M 4138.1116 2870.4758 L 4140.9716 2870.4758 M 4145.1916 2868.4258 L 4143.1416 2872.7258 M 4142.3216 2868.4258 L 4145.1916 2868.4258" fill="none"  stroke-width="0.7" c_note="note_pre" /></g><path d="M 4117.6378 2932.6494 A 4.7295 4.7295 0 0 0 4112.5182 2937.9266" locked="0"  fill="none" stroke-width="1.9748" c_helper_type="arc2" net="" layerid="3" id="gge84192" /><path d="M 4171.5749 2937.7675 A 4.7295 4.7295 0 0 0 4166.2977 2932.6479" locked="0"  fill="none" stroke-width="1.9748" c_helper_type="arc2" net="" layerid="3" id="gge84354" /><path d="M 4166.4568 2991.7045 A 4.7295 4.7295 0 0 0 4171.5764 2986.4273" locked="0"  fill="none" stroke-width="1.9748" c_helper_type="arc2" net="" layerid="3" id="gge84186" /><path d="M 4112.5197 2986.5864 A 4.7295 4.7295 0 0 0 4117.7968 2991.7062" locked="0"  fill="none" stroke-width="1.9748" c_helper_type="arc2" net="" layerid="3" id="gge84189" /><circle cx="4126.299" cy="3194.461" r="31.496" stroke-width="0.9843" fill="none" layerid="3" id="gge84484" locked="0"  /><path d="M 4093.2284 3015.7203 L 4093.1066 3015.7481 L 4092.9617 3015.7658 L 4092.8169 3015.7834 L 4092.6544 3015.7988 L 4092.492 3015.8141 L 4092.3925 3015.8526 L 4092.2929 3015.891 L 4092.1207 3015.9156 L 4091.9485 3015.9401 L 4091.8722 3015.9786 L 4091.7959 3016.017 L 4091.6622 3016.0397 L 4091.5286 3016.0624 L 4091.4615 3016.1028 L 4091.3943 3016.1431 L 4091.2832 3016.1671 L 4091.1721 3016.1911 L 4091.1095 3016.2287 L 4091.0469 3016.2664 L 4090.9519 3016.2889 L 4090.8569 3016.3114 L 4090.8216 3016.3455 L 4090.7861 3016.3797 L 4090.6815 3016.4115 L 4090.5767 3016.4434 L 4090.5379 3016.4808 L 4090.499 3016.5183 L 4090.4219 3016.5418 L 4090.3449 3016.5653 L 4090.2877 3016.6119 L 4090.2307 3016.6584 L 4090.1818 3016.6678 L 4090.1328 3016.6772 L 4090.0682 3016.7297 L 4090.0036 3016.7822 L 4089.9592 3016.7921 L 4089.9147 3016.8023 L 4089.8765 3016.8488 L 4089.8382 3016.8954 L 4089.7713 3016.9188 L 4089.7044 3016.9423 L 4089.6686 3016.9813 L 4089.6327 3017.0204 L 4089.5691 3017.0494 L 4089.5054 3017.0783 L 4089.4957 3017.1098 L 4089.4859 3017.1413 L 4089.4439 3017.1563 L 4089.4019 3017.1714 L 4089.3312 3017.2319 L 4089.2606 3017.2925 L 4089.1742 3017.3628 L 4089.0877 3017.4332 L 4089.0398 3017.4809 L 4088.9918 3017.5285 L 4088.9511 3017.5548 L 4088.9103 3017.5808 L 4088.9005 3017.6127 L 4088.8906 3017.6446 L 4088.8453 3017.6686 L 4088.8 3017.6927 L 4088.7825 3017.7322 L 4088.7649 3017.7717 L 4088.7215 3017.7947 L 4088.6781 3017.8177 L 4088.6605 3017.8573 L 4088.643 3017.8967 L 4088.601 3017.9191 L 4088.559 3017.9413 L 4088.5338 3017.9955 L 4088.5089 3018.0497 L 4088.4831 3018.058 L 4088.4575 3018.0664 L 4088.4294 3018.1151 L 4088.4014 3018.1638 L 4088.3641 3018.197 L 4088.3269 3018.2302 L 4088.2947 3018.2851 L 4088.2624 3018.3401 L 4088.2118 3018.3987 L 4088.1613 3018.4574 L 4088.1613 3018.4779 L 4088.1613 3018.4985 L 4088.1079 3018.5469 L 4088.0546 3018.5953 L 4088.0546 3018.6184 L 4088.0546 3018.6415 L 4087.9942 3018.7164 L 4087.9339 3018.7914 L 4087.9241 3018.8366 L 4087.9145 3018.882 L 4087.8709 3018.9219 L 4087.8271 3018.9618 L 4087.8032 3019.0356 L 4087.7792 3019.1095 L 4087.7421 3019.1453 L 4087.705 3019.181 L 4087.6795 3019.2609 L 4087.6538 3019.3407 L 4087.6185 3019.3844 L 4087.5831 3019.428 L 4087.5515 3019.5368 L 4087.5199 3019.6457 L 4087.5057 3019.6457 L 4087.4915 3019.6457 L 4087.4702 3019.6887 L 4087.4487 3019.7317 L 4087.4318 3019.8138 L 4087.4148 3019.8961 L 4087.377 3019.9547 L 4087.3392 3020.0133 L 4087.3141 3020.1383 L 4087.289 3020.2632 L 4087.263 3020.3024 L 4087.237 3020.3415 L 4087.2194 3020.3884 L 4087.2019 3020.4353 L 4087.186 3020.5447 L 4087.1701 3020.6542 L 4087.1316 3020.7437 L 4087.0931 3020.8333 L 4087.0706 3021.0088 L 4087.0481 3021.1844 L 4087.0092 3021.3102 L 4086.9704 3021.4359 L 4086.9553 3021.6314 L 4086.9403 3021.8268 L 4086.9174 3022.0457 L 4086.8947 3022.2646 L 4086.8737 3022.4053 L 4086.8527 3022.546 L 4086.852 3023.2107 L 4086.8513 3023.8751 L 4086.8735 3024.1019 L 4086.8958 3024.3286 L 4086.9115 3024.4693 L 4086.9272 3024.61 L 4086.9426 3024.9227 L 4086.958 3025.2354 L 4086.9823 3025.3683 L 4087.0067 3025.5012 L 4087.0274 3025.5676 L 4087.0483 3025.6339 L 4087.0649 3025.8177 L 4087.0813 3026.0016 L 4087.1197 3026.111 L 4087.1579 3026.2205 L 4087.1879 3026.3925 L 4087.2179 3026.5644 L 4087.2539 3026.6192 L 4087.2899 3026.6739 L 4087.3145 3026.7988 L 4087.3391 3026.9235 L 4087.3757 3026.9786 L 4087.4123 3027.0335 L 4087.4351 3027.1242 L 4087.4578 3027.2148 L 4087.4948 3027.2649 L 4087.5318 3027.315 L 4087.5576 3027.3952 L 4087.5834 3027.4755 L 4087.6119 3027.5019 L 4087.6403 3027.5283 L 4087.672 3027.6041 L 4087.7039 3027.6801 L 4087.7397 3027.7089 L 4087.7754 3027.7377 L 4087.795 3027.7765 L 4087.8146 3027.8153 L 4087.8961 3027.8974 L 4087.9778 3027.9795 L 4087.9951 3027.9795 L 4088.0125 3027.9795 L 4088.0627 3028.0246 L 4088.1127 3028.0699 L 4088.1942 3028.0973 L 4088.2755 3028.1248 L 4088.3119 3028.1537 L 4088.3482 3028.1827 L 4088.4033 3028.1978 L 4088.4585 3028.213 L 4088.5516 3028.2167 L 4088.6447 3028.2205 L 4088.685 3028.1934 L 4088.7252 3028.1664 L 4088.7252 3028.1496 L 4088.7252 3028.1329 L 4088.7581 3028.0855 L 4088.7909 3028.038 L 4088.7886 3027.9759 L 4088.7862 3027.9139 L 4088.7539 3027.8412 L 4088.7216 3027.7684 L 4088.7077 3027.4557 L 4088.6938 3027.143 L 4088.6704 3026.9788 L 4088.6471 3026.8146 L 4088.626 3026.7286 L 4088.605 3026.6427 L 4088.5815 3026.3768 L 4088.5581 3026.111 L 4088.5346 3026.025 L 4088.5113 3025.939 L 4088.49 3025.8296 L 4088.4687 3025.7202 L 4088.4531 3025.5481 L 4088.4375 3025.376 L 4088.3991 3025.251 L 4088.3608 3025.126 L 4088.3502 3025.0556 L 4088.3397 3024.9853 L 4088.2833 3024.9306 L 4088.2271 3024.8758 L 4088.2089 3024.8211 L 4088.1908 3024.7664 L 4088.1526 3024.7073 L 4088.1145 3024.6482 L 4088.0836 3024.4188 L 4088.0525 3024.1893 L 4088.0466 3024.1796 L 4088.0409 3024.1698 L 4088.0134 3024.0068 L 4087.986 3023.8438 L 4087.9865 3023.2107 L 4087.9871 3022.5773 L 4088.0205 3022.4407 L 4088.054 3022.3039 L 4088.069 3022.2061 L 4088.0838 3022.1083 L 4088.1005 3021.9382 L 4088.117 3021.7682 L 4088.1548 3021.6916 L 4088.1927 3021.6149 L 4088.2153 3021.4601 L 4088.2378 3021.3053 L 4088.2758 3021.2299 L 4088.3139 3021.1545 L 4088.3371 3021.0296 L 4088.3602 3020.9047 L 4088.3973 3020.8498 L 4088.4344 3020.7949 L 4088.4568 3020.6956 L 4088.4793 3020.5963 L 4088.5185 3020.5382 L 4088.5576 3020.4802 L 4088.5807 3020.3892 L 4088.6038 3020.2982 L 4088.6416 3020.2524 L 4088.6792 3020.2065 L 4088.7036 3020.1201 L 4088.7281 3020.0337 L 4088.7643 3020.0014 L 4088.8006 3019.9691 L 4088.8239 3019.8866 L 4088.8473 3019.8041 L 4088.8835 3019.7599 L 4088.9197 3019.7158 L 4088.9443 3019.6555 L 4088.9689 3019.5952 L 4089.013 3019.5436 L 4089.0572 3019.4919 L 4089.0752 3019.4358 L 4089.0933 3019.3796 L 4089.124 3019.3627 L 4089.1547 3019.3459 L 4089.1842 3019.2774 L 4089.2137 3019.2089 L 4089.2407 3019.1888 L 4089.2675 3019.1687 L 4089.3035 3019.1062 L 4089.3395 3019.0437 L 4089.3887 3018.9889 L 4089.4381 3018.9342 L 4089.4481 3018.8998 L 4089.4582 3018.8654 L 4089.4883 3018.8556 L 4089.5184 3018.8458 L 4089.544 3018.804 L 4089.5697 3018.7623 L 4089.6237 3018.7049 L 4089.6776 3018.6475 L 4089.702 3018.6188 L 4089.7263 3018.5902 L 4089.7506 3018.5667 L 4089.775 3018.5433 L 4089.8178 3018.5005 L 4089.8605 3018.4575 L 4089.8951 3018.4222 L 4089.9296 3018.387 L 4089.9534 3018.3635 L 4089.9772 3018.3401 L 4090.0331 3018.2836 L 4090.089 3018.2273 L 4090.1083 3018.2211 L 4090.1275 3018.2149 L 4090.1845 3018.1634 L 4090.2414 3018.1121 L 4090.3272 3018.0437 L 4090.4128 3017.9755 L 4090.46 3017.9504 L 4090.5073 3017.9254 L 4090.5228 3017.8955 L 4090.5384 3017.8657 L 4090.5932 3017.8471 L 4090.648 3017.8286 L 4090.6983 3017.7832 L 4090.7485 3017.7379 L 4090.8148 3017.7139 L 4090.8811 3017.6899 L 4090.9194 3017.6534 L 4090.9577 3017.6168 L 4091.0395 3017.5895 L 4091.1214 3017.5623 L 4091.1529 3017.53 L 4091.1843 3017.4977 L 4091.2832 3017.4696 L 4091.3822 3017.4415 L 4091.4399 3017.4003 L 4091.4979 3017.3591 L 4091.6006 3017.3371 L 4091.7033 3017.315 L 4091.7682 3017.2759 L 4091.8331 3017.237 L 4092.005 3017.2125 L 4092.1769 3017.188 L 4092.2302 3017.1644 L 4092.2835 3017.1407 L 4092.3292 3017.1263 L 4092.3751 3017.1117 L 4092.6798 3017.0848 L 4092.9846 3017.0579 L 4093.7389 3017.0579 L 4094.4933 3017.0579 L 4094.7981 3017.0848 L 4095.1029 3017.1117 L 4095.1487 3017.1263 L 4095.1943 3017.1407 L 4095.2477 3017.1644 L 4095.301 3017.188 L 4095.4729 3017.2125 L 4095.6448 3017.237 L 4095.7095 3017.2758 L 4095.7741 3017.3147 L 4095.8766 3017.3391 L 4095.9791 3017.3635 L 4096.0507 3017.4101 L 4096.1223 3017.4566 L 4096.1384 3017.4567 L 4096.1545 3017.4568 L 4096.2111 3017.4729 L 4096.2678 3017.4891 L 4096.3102 3017.5253 L 4096.3526 3017.5614 L 4096.4332 3017.5887 L 4096.5139 3017.6159 L 4096.5606 3017.6598 L 4096.6074 3017.7035 L 4096.6479 3017.7119 L 4096.6884 3017.7202 L 4096.7568 3017.7756 L 4096.825 3017.8311 L 4096.8647 3017.84 L 4096.9045 3017.849 L 4096.951 3017.903 L 4096.9977 3017.9569 L 4097.0206 3017.9569 L 4097.0434 3017.9569 L 4097.1238 3018.0273 L 4097.2042 3018.0976 L 4097.2234 3018.0976 L 4097.2427 3018.0976 L 4097.3103 3018.1681 L 4097.3779 3018.2384 L 4097.3924 3018.2384 L 4097.4068 3018.2384 L 4097.4231 3018.2751 L 4097.4394 3018.3116 L 4097.4932 3018.3378 L 4097.547 3018.364 L 4097.5568 3018.3956 L 4097.5666 3018.4272 L 4097.6251 3018.4651 L 4097.6836 3018.503 L 4097.6924 3018.5315 L 4097.7013 3018.56 L 4097.7469 3018.5877 L 4097.7928 3018.6154 L 4097.7928 3018.6316 L 4097.7928 3018.6477 L 4097.8575 3018.7171 L 4097.9222 3018.7865 L 4097.9721 3018.8448 L 4098.0219 3018.903 L 4098.0751 3018.9733 L 4098.1283 3019.0437 L 4098.1549 3019.09 L 4098.1813 3019.1364 L 4098.2235 3019.1787 L 4098.2656 3019.2208 L 4098.287 3019.2733 L 4098.3083 3019.3258 L 4098.3418 3019.3567 L 4098.3754 3019.3876 L 4098.4097 3019.4658 L 4098.4439 3019.544 L 4098.4832 3019.5812 L 4098.5226 3019.6183 L 4098.5322 3019.6632 L 4098.5419 3019.7082 L 4098.5935 3019.7716 L 4098.645 3019.8349 L 4098.6546 3019.8868 L 4098.664 3019.9388 L 4098.708 3019.9881 L 4098.7519 3020.0374 L 4098.7682 3020.1035 L 4098.7843 3020.1694 L 4098.7994 3020.2008 L 4098.8144 3020.232 L 4098.8513 3020.2838 L 4098.8882 3020.3355 L 4098.9054 3020.4207 L 4098.9227 3020.506 L 4098.9586 3020.5498 L 4098.9947 3020.5938 L 4099.0191 3020.7021 L 4099.0436 3020.8105 L 4099.0807 3020.8656 L 4099.1179 3020.9207 L 4099.1422 3021.0525 L 4099.1666 3021.1844 L 4099.2041 3021.2499 L 4099.2414 3021.3154 L 4099.2567 3021.4523 L 4099.2718 3021.5893 L 4099.3179 3021.7075 L 4099.3641 3021.8257 L 4099.387 3022.053 L 4099.41 3022.2803 L 4099.4399 3022.421 L 4099.4698 3022.5618 L 4099.4866 3022.7728 L 4099.5033 3022.9839 L 4099.4943 3023.4217 L 4099.4853 3023.8595 L 4099.4537 3024.0314 L 4099.422 3024.2034 L 4099.3926 3024.421 L 4099.3632 3024.6384 L 4099.334 3024.6711 L 4099.3049 3024.7038 L 4099.2708 3024.8011 L 4099.2367 3024.8984 L 4099.2094 3024.9072 L 4099.1822 3024.9161 L 4099.1594 3024.952 L 4099.1364 3024.9879 L 4099.1252 3025.0647 L 4099.1141 3025.1416 L 4099.0785 3025.2389 L 4099.043 3025.3361 L 4099.0187 3025.5748 L 4098.9944 3025.8134 L 4098.9649 3025.8997 L 4098.9352 3025.9859 L 4098.9197 3026.0798 L 4098.9043 3026.1736 L 4098.8897 3026.4003 L 4098.8751 3026.627 L 4098.8524 3026.7051 L 4098.8297 3026.7834 L 4098.8138 3026.8772 L 4098.7979 3026.9711 L 4098.7833 3027.2524 L 4098.7687 3027.5339 L 4098.762 3027.6511 L 4098.7555 3027.7684 L 4098.7236 3027.8412 L 4098.6918 3027.9139 L 4098.6894 3027.9759 L 4098.687 3028.038 L 4098.7174 3028.083 L 4098.7479 3028.1281 L 4098.7577 3028.1561 L 4098.7676 3028.1842 L 4098.8174 3028.2049 L 4098.8671 3028.2256 L 4098.9796 3028.2128 L 4099.092 3028.1998 L 4099.1478 3028.1602 L 4099.2036 3028.1205 L 4099.2833 3028.0962 L 4099.3628 3028.072 L 4099.4121 3028.029 L 4099.4614 3027.9861 L 4099.5036 3027.9674 L 4099.5458 3027.9487 L 4099.5624 3027.9111 L 4099.5791 3027.8735 L 4099.6131 3027.8575 L 4099.6471 3027.8417 L 4099.673 3027.7858 L 4099.6989 3027.7298 L 4099.7294 3027.713 L 4099.7597 3027.6963 L 4099.7951 3027.6151 L 4099.8304 3027.5339 L 4099.8635 3027.5038 L 4099.8965 3027.4736 L 4099.9198 3027.3916 L 4099.943 3027.3095 L 4099.9853 3027.255 L 4100.0275 3027.2004 L 4100.0473 3027.1096 L 4100.0672 3027.0187 L 4100.1032 3026.9702 L 4100.1392 3026.9217 L 4100.1641 3026.7978 L 4100.1889 3026.6739 L 4100.2246 3026.6111 L 4100.2603 3026.5483 L 4100.2901 3026.3609 L 4100.3198 3026.1736 L 4100.3528 3026.0982 L 4100.3859 3026.0227 L 4100.4084 3025.8089 L 4100.431 3025.595 L 4100.4588 3025.5012 L 4100.4864 3025.4074 L 4100.5035 3025.298 L 4100.5204 3025.1885 L 4100.5351 3024.8819 L 4100.5498 3024.5753 L 4100.5665 3024.4285 L 4100.5831 3024.2817 L 4100.5988 3024.1644 L 4100.6146 3024.0472 L 4100.6226 3023.4373 L 4100.6307 3022.8275 L 4100.6134 3022.6399 L 4100.596 3022.4522 L 4100.5736 3022.2724 L 4100.5514 3022.0927 L 4100.5362 3021.8446 L 4100.5209 3021.5965 L 4100.5036 3021.4928 L 4100.4861 3021.389 L 4100.4583 3021.316 L 4100.4305 3021.2429 L 4100.4147 3021.0845 L 4100.3988 3020.9261 L 4100.3889 3020.884 L 4100.379 3020.8418 L 4100.3443 3020.7702 L 4100.3094 3020.6987 L 4100.2919 3020.5676 L 4100.2744 3020.4363 L 4100.2522 3020.3816 L 4100.2299 3020.3269 L 4100.2087 3020.303 L 4100.1876 3020.2789 L 4100.1698 3020.1694 L 4100.1522 3020.0601 L 4100.108 3019.9849 L 4100.0638 3019.9099 L 4100.0401 3019.8053 L 4100.0165 3019.7008 L 4099.9802 3019.6614 L 4099.944 3019.6222 L 4099.9213 3019.5324 L 4099.8988 3019.4427 L 4099.8587 3019.3938 L 4099.8185 3019.3448 L 4099.8 3019.2736 L 4099.7815 3019.2025 L 4099.7424 3019.1621 L 4099.7033 3019.1218 L 4099.6739 3019.0375 L 4099.6444 3018.9533 L 4099.6102 3018.9303 L 4099.576 3018.9073 L 4099.5585 3018.8475 L 4099.541 3018.7876 L 4099.4822 3018.7146 L 4099.4234 3018.6415 L 4099.4234 3018.6184 L 4099.4234 3018.5953 L 4099.3701 3018.5469 L 4099.3167 3018.4985 L 4099.3167 3018.4789 L 4099.3167 3018.4594 L 4099.2628 3018.392 L 4099.2089 3018.3244 L 4099.1561 3018.2541 L 4099.1034 3018.1837 L 4099.0614 3018.1255 L 4099.0195 3018.0674 L 4098.9943 3018.0585 L 4098.9691 3018.0497 L 4098.9441 3017.9955 L 4098.919 3017.9413 L 4098.877 3017.9191 L 4098.835 3017.8967 L 4098.8174 3017.8573 L 4098.7998 3017.8177 L 4098.7564 3017.7947 L 4098.713 3017.7717 L 4098.6954 3017.7322 L 4098.6779 3017.6927 L 4098.6348 3017.6697 L 4098.5917 3017.6469 L 4098.5707 3017.6067 L 4098.5497 3017.5666 L 4098.5224 3017.5577 L 4098.4951 3017.5488 L 4098.4541 3017.4988 L 4098.4132 3017.4488 L 4098.3658 3017.4193 L 4098.3185 3017.3898 L 4098.2988 3017.3609 L 4098.2789 3017.332 L 4098.2134 3017.2925 L 4098.1477 3017.2531 L 4098.1188 3017.2203 L 4098.0898 3017.1875 L 4098.0345 3017.1586 L 4097.9793 3017.1295 L 4097.9706 3017.1062 L 4097.9618 3017.0828 L 4097.897 3017.0489 L 4097.8322 3017.0149 L 4097.8049 3016.9793 L 4097.7776 3016.9436 L 4097.7087 3016.9195 L 4097.6397 3016.8954 L 4097.6028 3016.8504 L 4097.566 3016.8054 L 4097.5003 3016.7856 L 4097.4345 3016.7658 L 4097.3962 3016.7288 L 4097.358 3016.6917 L 4097.292 3016.6678 L 4097.2261 3016.644 L 4097.1819 3016.6058 L 4097.1377 3016.5677 L 4097.0503 3016.5416 L 4096.9629 3016.5156 L 4096.9125 3016.4701 L 4096.862 3016.4246 L 4096.8436 3016.4246 L 4096.825 3016.4245 L 4096.7683 3016.4084 L 4096.7117 3016.3922 L 4096.6673 3016.3539 L 4096.623 3016.3157 L 4096.5193 3016.2909 L 4096.4156 3016.2663 L 4096.3533 3016.2288 L 4096.2909 3016.1913 L 4096.1856 3016.1663 L 4096.0803 3016.1412 L 4096.0183 3016.1041 L 4095.9563 3016.0671 L 4095.8223 3016.0416 L 4095.6885 3016.016 L 4095.6166 3015.9779 L 4095.5449 3015.9399 L 4095.362 3015.916 L 4095.1791 3015.8921 L 4095.1029 3015.8617 L 4095.0267 3015.8313 L 4094.9512 3015.8145 L 4094.8757 3015.7977 L 4094.6749 3015.7829 L 4094.4742 3015.7682 L 4094.2821 3015.729 L 4094.09 3015.6898 L 4093.7201 3015.691 L 4093.3503 3015.6924 L 4093.2284 3015.7203 M 4089.5328 3023.173 L 4089.4948 3023.18 L 4089.4467 3023.1879 L 4089.3988 3023.1958 L 4089.3438 3023.2341 L 4089.2888 3023.2723 L 4089.207 3023.2968 L 4089.1252 3023.3212 L 4089.0966 3023.3536 L 4089.068 3023.3859 L 4089.0071 3023.4174 L 4088.9461 3023.449 L 4088.8971 3023.4978 L 4088.8481 3023.5468 L 4088.8133 3023.5825 L 4088.7785 3023.6182 L 4088.7269 3023.6715 L 4088.6753 3023.7248 L 4088.6473 3023.7843 L 4088.6193 3023.8438 L 4088.5863 3023.8856 L 4088.5534 3023.9273 L 4088.5181 3024.0888 L 4088.4827 3024.2504 L 4088.4823 3024.3129 L 4088.4819 3024.3755 L 4088.5044 3024.5162 L 4088.5269 3024.6569 L 4088.5272 3024.7585 L 4088.5275 3024.8602 L 4088.5502 3025.0236 L 4088.5729 3025.1869 L 4088.602 3025.2972 L 4088.6312 3025.4074 L 4088.6563 3025.7085 L 4088.6815 3026.0096 L 4088.7196 3026.1698 L 4088.7579 3026.3299 L 4088.7717 3026.541 L 4088.7853 3026.752 L 4088.8021 3026.8615 L 4088.8189 3026.9711 L 4088.8475 3027.0804 L 4088.8761 3027.1899 L 4088.8924 3027.4166 L 4088.9088 3027.6433 L 4088.9176 3027.7137 L 4088.9264 3027.784 L 4088.9635 3027.948 L 4089.0006 3028.112 L 4089.0161 3028.3154 L 4089.0316 3028.5189 L 4089.0474 3028.5815 L 4089.0631 3028.644 L 4089.0904 3028.6753 L 4089.1176 3028.7066 L 4089.1367 3028.7691 L 4089.1559 3028.8317 L 4089.2406 3028.9387 L 4089.3253 3029.0457 L 4089.3795 3029.0863 L 4089.4338 3029.1269 L 4089.4795 3029.1691 L 4089.5252 3029.2113 L 4089.5634 3029.2229 L 4089.6014 3029.2346 L 4089.6505 3029.2785 L 4089.6996 3029.3224 L 4089.7572 3029.3389 L 4089.8148 3029.3553 L 4089.8351 3029.3553 L 4089.8554 3029.3554 L 4089.9634 3029.4042 L 4090.0715 3029.4528 L 4090.2569 3029.461 L 4090.4422 3029.4693 L 4090.5207 3029.4499 L 4090.5992 3029.4306 L 4090.6337 3029.4031 L 4090.6682 3029.3756 L 4090.7512 3029.3554 L 4090.8343 3029.3352 L 4090.8869 3029.2827 L 4090.9395 3029.2304 L 4090.957 3029.2304 L 4090.9744 3029.2304 L 4091.0651 3029.1378 L 4091.1558 3029.0452 L 4091.2033 3028.9918 L 4091.2509 3028.9382 L 4091.2701 3028.8771 L 4091.2892 3028.816 L 4091.3083 3028.7925 L 4091.3274 3028.7691 L 4091.3514 3028.7204 L 4091.3754 3028.6718 L 4091.3927 3028.5015 L 4091.41 3028.3313 L 4091.3857 3028.0264 L 4091.3615 3027.7215 L 4091.3239 3027.5673 L 4091.2864 3027.413 L 4091.2699 3027.1841 L 4091.2535 3026.9553 L 4091.2373 3026.8462 L 4091.2209 3026.737 L 4091.2064 3026.6977 L 4091.1918 3026.6582 L 4091.1772 3026.5801 L 4091.1627 3026.502 L 4091.1407 3026.2284 L 4091.1185 3025.9547 L 4091.0798 3025.7923 L 4091.0409 3025.6299 L 4091.0324 3025.464 L 4091.0238 3025.298 L 4091.0017 3025.1338 L 4090.9797 3024.9697 L 4090.9583 3024.8992 L 4090.9371 3024.8289 L 4090.9213 3024.7195 L 4090.9056 3024.61 L 4090.8964 3024.4458 L 4090.8872 3024.2817 L 4090.8716 3024.1886 L 4090.8562 3024.0954 L 4090.8322 3024.0478 L 4090.8082 3024.0003 L 4090.7802 3023.8851 L 4090.7521 3023.77 L 4090.7076 3023.718 L 4090.6633 3023.6661 L 4090.6526 3023.6317 L 4090.642 3023.5974 L 4090.5636 3023.5159 L 4090.4853 3023.4345 L 4090.4474 3023.4138 L 4090.4096 3023.3933 L 4090.3825 3023.3578 L 4090.3554 3023.3224 L 4090.2756 3023.2957 L 4090.1958 3023.2691 L 4090.1723 3023.2483 L 4090.1489 3023.2275 L 4090.0885 3023.2011 L 4090.0281 3023.1747 L 4089.7996 3023.1704 L 4089.5709 3023.166 L 4089.5328 3023.173 M 4097.4955 3023.1715 L 4097.4803 3023.1767 L 4097.4247 3023.1863 L 4097.3691 3023.1958 L 4097.3171 3023.232 L 4097.2651 3023.2682 L 4097.1905 3023.2943 L 4097.116 3023.3203 L 4097.0696 3023.3675 L 4097.0231 3023.4146 L 4096.9202 3023.515 L 4096.8173 3023.6154 L 4096.8173 3023.6373 L 4096.8173 3023.6592 L 4096.7855 3023.6888 L 4096.7536 3023.7184 L 4096.7375 3023.7493 L 4096.7213 3023.7803 L 4096.6944 3023.8824 L 4096.6674 3023.9845 L 4096.6351 3024.0758 L 4096.6028 3024.167 L 4096.5813 3024.4433 L 4096.5599 3024.7195 L 4096.5449 3024.7977 L 4096.53 3024.8758 L 4096.5152 3024.9157 L 4096.5004 3024.9557 L 4096.4768 3025.1346 L 4096.4534 3025.3136 L 4096.4448 3025.473 L 4096.4363 3025.6323 L 4096.3978 3025.7935 L 4096.3593 3025.9547 L 4096.3373 3026.2284 L 4096.3151 3026.502 L 4096.3007 3026.5801 L 4096.2862 3026.6582 L 4096.2716 3026.6977 L 4096.257 3026.737 L 4096.2407 3026.8462 L 4096.2244 3026.9553 L 4096.208 3027.1841 L 4096.1916 3027.413 L 4096.154 3027.5673 L 4096.1164 3027.7215 L 4096.0925 3028.0185 L 4096.0686 3028.3157 L 4096.0781 3028.4407 L 4096.0876 3028.5658 L 4096.103 3028.6481 L 4096.1185 3028.7303 L 4096.1534 3028.7731 L 4096.1881 3028.816 L 4096.2075 3028.8771 L 4096.2269 3028.9382 L 4096.2745 3028.9913 L 4096.3221 3029.0445 L 4096.4096 3029.1375 L 4096.497 3029.2304 L 4096.5118 3029.2304 L 4096.5268 3029.2304 L 4096.572 3029.2756 L 4096.6171 3029.3209 L 4096.6981 3029.3471 L 4096.7793 3029.3733 L 4096.8631 3029.4151 L 4096.9469 3029.457 L 4097.1755 3029.457 L 4097.4041 3029.457 L 4097.4915 3029.415 L 4097.5789 3029.373 L 4097.6726 3029.3483 L 4097.7663 3029.3238 L 4097.8165 3029.2785 L 4097.8666 3029.2334 L 4097.9124 3029.223 L 4097.9582 3029.2127 L 4097.9783 3029.1879 L 4097.9984 3029.163 L 4098.0751 3029.1049 L 4098.1517 3029.0468 L 4098.2374 3028.9393 L 4098.323 3028.8317 L 4098.3395 3028.7687 L 4098.3558 3028.7057 L 4098.3929 3028.6545 L 4098.4297 3028.6031 L 4098.4384 3028.5532 L 4098.4472 3028.5033 L 4098.4624 3028.3073 L 4098.4776 3028.1112 L 4098.5147 3027.9476 L 4098.5518 3027.784 L 4098.5611 3027.7059 L 4098.5704 3027.6277 L 4098.5858 3027.4088 L 4098.6012 3027.1899 L 4098.6301 3027.0804 L 4098.659 3026.9711 L 4098.6758 3026.8615 L 4098.6926 3026.752 L 4098.7063 3026.541 L 4098.72 3026.3299 L 4098.7584 3026.1698 L 4098.7965 3026.0096 L 4098.8216 3025.7085 L 4098.8467 3025.4074 L 4098.876 3025.2972 L 4098.9051 3025.1869 L 4098.9278 3025.0236 L 4098.9504 3024.8602 L 4098.9507 3024.7615 L 4098.9509 3024.6627 L 4098.9761 3024.4976 L 4099.0011 3024.3324 L 4098.9766 3024.1976 L 4098.9522 3024.0627 L 4098.9422 3024.0041 L 4098.9323 3023.9453 L 4098.8869 3023.8869 L 4098.8415 3023.8282 L 4098.8194 3023.7741 L 4098.7974 3023.7199 L 4098.7485 3023.669 L 4098.6995 3023.6182 L 4098.6653 3023.5825 L 4098.6311 3023.5468 L 4098.5707 3023.4881 L 4098.5102 3023.4295 L 4098.4958 3023.4295 L 4098.4814 3023.4295 L 4098.4175 3023.3748 L 4098.3537 3023.32 L 4098.2676 3023.295 L 4098.1813 3023.2701 L 4098.128 3023.2333 L 4098.0746 3023.1966 L 4097.9756 3023.1802 L 4097.8765 3023.1639 L 4097.6937 3023.1651 L 4097.5108 3023.1662 L 4097.4955 3023.1715" stroke="none" layerid="3" id="gge81812"></path><path d="M 4098.3465 3339.7362 L 4098.2073 3339.768 L 4098.0417 3339.7883 L 4097.8763 3339.8084 L 4097.6906 3339.826 L 4097.5049 3339.8435 L 4097.3912 3339.8874 L 4097.2774 3339.9313 L 4097.0806 3339.9594 L 4096.8838 3339.9875 L 4096.7966 3340.0314 L 4096.7094 3340.0753 L 4096.5566 3340.1013 L 4096.4039 3340.1272 L 4096.3272 3340.1734 L 4096.2505 3340.2195 L 4096.1235 3340.2469 L 4095.9965 3340.2743 L 4095.925 3340.3173 L 4095.8534 3340.3604 L 4095.7448 3340.3861 L 4095.6363 3340.4118 L 4095.5959 3340.4508 L 4095.5554 3340.4898 L 4095.4358 3340.5262 L 4095.3161 3340.5626 L 4095.2717 3340.6054 L 4095.2273 3340.6482 L 4095.1392 3340.6751 L 4095.0511 3340.702 L 4094.9858 3340.7552 L 4094.9206 3340.8084 L 4094.8647 3340.8191 L 4094.8087 3340.8299 L 4094.7349 3340.8899 L 4094.6611 3340.9498 L 4094.6103 3340.9612 L 4094.5595 3340.9728 L 4094.5158 3341.026 L 4094.4721 3341.0792 L 4094.3956 3341.106 L 4094.3191 3341.1328 L 4094.2782 3341.1774 L 4094.2372 3341.2221 L 4094.1645 3341.2552 L 4094.0917 3341.2882 L 4094.0806 3341.3242 L 4094.0694 3341.3602 L 4094.0214 3341.3774 L 4093.9734 3341.3946 L 4093.8927 3341.4638 L 4093.812 3341.533 L 4093.7132 3341.6134 L 4093.6144 3341.6938 L 4093.5596 3341.7484 L 4093.5048 3341.8028 L 4093.4582 3341.8328 L 4093.4116 3341.8626 L 4093.4004 3341.899 L 4093.3891 3341.9355 L 4093.3373 3341.9629 L 4093.2856 3341.9904 L 4093.2656 3342.0356 L 4093.2455 3342.0807 L 4093.1959 3342.107 L 4093.1463 3342.1333 L 4093.1262 3342.1785 L 4093.1061 3342.2236 L 4093.0581 3342.2492 L 4093.0101 3342.2746 L 4092.9814 3342.3365 L 4092.9529 3342.3984 L 4092.9234 3342.4079 L 4092.8941 3342.4175 L 4092.862 3342.4732 L 4092.83 3342.5288 L 4092.7874 3342.5668 L 4092.7449 3342.6047 L 4092.7081 3342.6675 L 4092.6712 3342.7303 L 4092.6134 3342.7973 L 4092.5556 3342.8644 L 4092.5556 3342.8878 L 4092.5556 3342.9113 L 4092.4946 3342.9667 L 4092.4337 3343.022 L 4092.4337 3343.0484 L 4092.4337 3343.0748 L 4092.3647 3343.1604 L 4092.2957 3343.2461 L 4092.2846 3343.2978 L 4092.2736 3343.3496 L 4092.2237 3343.3952 L 4092.1737 3343.4408 L 4092.1464 3343.5252 L 4092.119 3343.6096 L 4092.0766 3343.6505 L 4092.0342 3343.6914 L 4092.005 3343.7827 L 4091.9757 3343.8739 L 4091.9353 3343.9238 L 4091.8948 3343.9736 L 4091.8587 3344.098 L 4091.8226 3344.2224 L 4091.8064 3344.2224 L 4091.7902 3344.2224 L 4091.7658 3344.2716 L 4091.7413 3344.3207 L 4091.7219 3344.4146 L 4091.7025 3344.5086 L 4091.6593 3344.5756 L 4091.6161 3344.6426 L 4091.5874 3344.7854 L 4091.5587 3344.9282 L 4091.529 3344.9729 L 4091.4993 3345.0176 L 4091.4792 3345.0712 L 4091.4592 3345.1248 L 4091.441 3345.2499 L 4091.4228 3345.375 L 4091.3788 3345.4773 L 4091.3348 3345.5797 L 4091.3091 3345.7803 L 4091.2834 3345.9809 L 4091.239 3346.1247 L 4091.1946 3346.2684 L 4091.1774 3346.4918 L 4091.1602 3346.7151 L 4091.1341 3346.9653 L 4091.1081 3347.2155 L 4091.0841 3347.3763 L 4091.0601 3347.5371 L 4091.0593 3348.2967 L 4091.0585 3349.0561 L 4091.0839 3349.3152 L 4091.1094 3349.5743 L 4091.1273 3349.7351 L 4091.1452 3349.8959 L 4091.1628 3350.2533 L 4091.1805 3350.6107 L 4091.2082 3350.7626 L 4091.2361 3350.9145 L 4091.2598 3350.9903 L 4091.2837 3351.0661 L 4091.3026 3351.2762 L 4091.3214 3351.4863 L 4091.3652 3351.6114 L 4091.4089 3351.7365 L 4091.4432 3351.9331 L 4091.4775 3352.1296 L 4091.5186 3352.1922 L 4091.5598 3352.2547 L 4091.5879 3352.3974 L 4091.616 3352.54 L 4091.6578 3352.6029 L 4091.6997 3352.6657 L 4091.7257 3352.7693 L 4091.7516 3352.8729 L 4091.7939 3352.9301 L 4091.8362 3352.9874 L 4091.8657 3353.079 L 4091.8952 3353.1708 L 4091.9278 3353.201 L 4091.9602 3353.2311 L 4091.9965 3353.3178 L 4092.0329 3353.4046 L 4092.0738 3353.4375 L 4092.1146 3353.4705 L 4092.137 3353.5148 L 4092.1594 3353.5592 L 4092.2526 3353.653 L 4092.3459 3353.7468 L 4092.3657 3353.7468 L 4092.3856 3353.7468 L 4092.4429 3353.7984 L 4092.5001 3353.8501 L 4092.5932 3353.8814 L 4092.6862 3353.9129 L 4092.7277 3353.9459 L 4092.7692 3353.979 L 4092.8322 3353.9963 L 4092.8953 3354.0137 L 4093.0017 3354.0179 L 4093.1081 3354.0222 L 4093.1541 3353.9913 L 4093.2001 3353.9604 L 4093.2001 3353.9412 L 4093.2001 3353.9221 L 4093.2377 3353.8679 L 4093.2752 3353.8137 L 4093.2725 3353.7427 L 4093.2698 3353.6718 L 4093.2329 3353.5887 L 4093.196 3353.5055 L 4093.1801 3353.1482 L 4093.1642 3352.7908 L 4093.1375 3352.6031 L 4093.1108 3352.4155 L 4093.0867 3352.3172 L 4093.0627 3352.219 L 4093.0359 3351.9152 L 4093.0091 3351.6114 L 4092.9823 3351.5131 L 4092.9556 3351.4148 L 4092.9313 3351.2898 L 4092.9069 3351.1647 L 4092.8891 3350.968 L 4092.8713 3350.7714 L 4092.8274 3350.6285 L 4092.7836 3350.4856 L 4092.7715 3350.4052 L 4092.7595 3350.3248 L 4092.6951 3350.2623 L 4092.6308 3350.1997 L 4092.61 3350.1372 L 4092.5893 3350.0747 L 4092.5457 3350.0071 L 4092.5022 3349.9396 L 4092.4668 3349.6774 L 4092.4313 3349.4151 L 4092.4246 3349.404 L 4092.418 3349.3929 L 4092.3866 3349.2066 L 4092.3553 3349.0203 L 4092.3559 3348.2967 L 4092.3565 3347.5729 L 4092.3947 3347.4167 L 4092.433 3347.2604 L 4092.4501 3347.1486 L 4092.4671 3347.0368 L 4092.4861 3346.8425 L 4092.505 3346.6481 L 4092.5482 3346.5606 L 4092.5915 3346.473 L 4092.6173 3346.296 L 4092.6431 3346.1191 L 4092.6865 3346.0329 L 4092.73 3345.9468 L 4092.7565 3345.804 L 4092.783 3345.6613 L 4092.8253 3345.5986 L 4092.8677 3345.5358 L 4092.8933 3345.4223 L 4092.9191 3345.3088 L 4092.9639 3345.2424 L 4093.0086 3345.1762 L 4093.035 3345.0722 L 4093.0614 3344.9682 L 4093.1045 3344.9158 L 4093.1475 3344.8633 L 4093.1754 3344.7646 L 4093.2034 3344.6659 L 4093.2448 3344.6289 L 4093.2862 3344.592 L 4093.3129 3344.4977 L 4093.3396 3344.4035 L 4093.381 3344.353 L 4093.4224 3344.3025 L 4093.4505 3344.2336 L 4093.4786 3344.1647 L 4093.529 3344.1057 L 4093.5795 3344.0467 L 4093.6001 3343.9825 L 4093.6208 3343.9183 L 4093.6559 3343.899 L 4093.6909 3343.8798 L 4093.7247 3343.8015 L 4093.7584 3343.7232 L 4093.7892 3343.7003 L 4093.8199 3343.6773 L 4093.861 3343.6059 L 4093.9021 3343.5344 L 4093.9584 3343.4718 L 4094.0148 3343.4093 L 4094.0263 3343.37 L 4094.0378 3343.3307 L 4094.0722 3343.3195 L 4094.1066 3343.3083 L 4094.1359 3343.2605 L 4094.1652 3343.2128 L 4094.2269 3343.1472 L 4094.2885 3343.0816 L 4094.3164 3343.0488 L 4094.3442 3343.0161 L 4094.372 3342.9893 L 4094.3998 3342.9625 L 4094.4487 3342.9136 L 4094.4976 3342.8645 L 4094.5371 3342.8242 L 4094.5765 3342.7839 L 4094.6037 3342.7571 L 4094.6309 3342.7303 L 4094.6948 3342.6658 L 4094.7587 3342.6014 L 4094.7807 3342.5943 L 4094.8027 3342.5872 L 4094.8678 3342.5284 L 4094.9329 3342.4697 L 4095.0309 3342.3916 L 4095.1288 3342.3136 L 4095.1827 3342.2849 L 4095.2367 3342.2564 L 4095.2545 3342.2222 L 4095.2723 3342.1881 L 4095.3349 3342.1669 L 4095.3975 3342.1457 L 4095.455 3342.0939 L 4095.5124 3342.0421 L 4095.5882 3342.0147 L 4095.6639 3341.9872 L 4095.7077 3341.9455 L 4095.7515 3341.9037 L 4095.845 3341.8725 L 4095.9386 3341.8414 L 4095.9746 3341.8045 L 4096.0105 3341.7676 L 4096.1235 3341.7354 L 4096.2366 3341.7033 L 4096.3026 3341.6563 L 4096.3688 3341.6092 L 4096.4862 3341.584 L 4096.6036 3341.5588 L 4096.6778 3341.5141 L 4096.7519 3341.4696 L 4096.9484 3341.4416 L 4097.1448 3341.4136 L 4097.2057 3341.3866 L 4097.2667 3341.3596 L 4097.3189 3341.3431 L 4097.3713 3341.3264 L 4097.7196 3341.2957 L 4098.0679 3341.2649 L 4098.93 3341.2649 L 4099.7921 3341.2649 L 4100.1404 3341.2957 L 4100.4888 3341.3264 L 4100.5411 3341.3431 L 4100.5933 3341.3596 L 4100.6543 3341.3866 L 4100.7152 3341.4136 L 4100.9117 3341.4416 L 4101.1081 3341.4696 L 4101.182 3341.514 L 4101.2559 3341.5584 L 4101.373 3341.5863 L 4101.4902 3341.6142 L 4101.572 3341.6674 L 4101.6538 3341.7206 L 4101.6722 3341.7207 L 4101.6906 3341.7208 L 4101.7553 3341.7392 L 4101.8201 3341.7577 L 4101.8685 3341.7991 L 4101.917 3341.8404 L 4102.0091 3341.8716 L 4102.1013 3341.9027 L 4102.1547 3341.9528 L 4102.2082 3342.0028 L 4102.2545 3342.0124 L 4102.3008 3342.0219 L 4102.3789 3342.0852 L 4102.4569 3342.1486 L 4102.5023 3342.1588 L 4102.5477 3342.1691 L 4102.6009 3342.2308 L 4102.6542 3342.2924 L 4102.6804 3342.2924 L 4102.7065 3342.2924 L 4102.7984 3342.3728 L 4102.8902 3342.4532 L 4102.9122 3342.4532 L 4102.9342 3342.4532 L 4103.0115 3342.5337 L 4103.0888 3342.6141 L 4103.1053 3342.6141 L 4103.1218 3342.6141 L 4103.1404 3342.656 L 4103.159 3342.6978 L 4103.2205 3342.7277 L 4103.282 3342.7576 L 4103.2932 3342.7938 L 4103.3044 3342.8299 L 4103.3713 3342.8732 L 4103.4381 3342.9165 L 4103.4482 3342.9491 L 4103.4583 3342.9816 L 4103.5105 3343.0133 L 4103.5629 3343.045 L 4103.5629 3343.0635 L 4103.5629 3343.0819 L 4103.6369 3343.1612 L 4103.7108 3343.2405 L 4103.7678 3343.3071 L 4103.8247 3343.3736 L 4103.8856 3343.454 L 4103.9464 3343.5344 L 4103.9767 3343.5874 L 4104.0069 3343.6404 L 4104.0551 3343.6887 L 4104.1033 3343.7368 L 4104.1277 3343.7968 L 4104.1521 3343.8568 L 4104.1904 3343.8921 L 4104.2288 3343.9275 L 4104.2679 3344.0168 L 4104.307 3344.1062 L 4104.352 3344.1487 L 4104.397 3344.1911 L 4104.408 3344.2424 L 4104.419 3344.2939 L 4104.478 3344.3663 L 4104.5369 3344.4387 L 4104.5478 3344.498 L 4104.5586 3344.5574 L 4104.6088 3344.6137 L 4104.659 3344.6701 L 4104.6776 3344.7456 L 4104.6961 3344.821 L 4104.7133 3344.8568 L 4104.7305 3344.8925 L 4104.7726 3344.9517 L 4104.8148 3345.0108 L 4104.8345 3345.1082 L 4104.8542 3345.2056 L 4104.8953 3345.2557 L 4104.9365 3345.306 L 4104.9644 3345.4298 L 4104.9924 3345.5536 L 4105.0348 3345.6166 L 4105.0773 3345.6796 L 4105.1051 3345.8302 L 4105.133 3345.9809 L 4105.1758 3346.0558 L 4105.2185 3346.1307 L 4105.2359 3346.2871 L 4105.2532 3346.4437 L 4105.3059 3346.5788 L 4105.3587 3346.7139 L 4105.3849 3346.9736 L 4105.4111 3347.2334 L 4105.4453 3347.3942 L 4105.4795 3347.5551 L 4105.4987 3347.7963 L 4105.5178 3348.0375 L 4105.5075 3348.5379 L 4105.4972 3349.0382 L 4105.4611 3349.2347 L 4105.4249 3349.4313 L 4105.3913 3349.6799 L 4105.3576 3349.9284 L 4105.3243 3349.9658 L 4105.291 3350.0031 L 4105.252 3350.1143 L 4105.2131 3350.2255 L 4105.1819 3350.2356 L 4105.1508 3350.2458 L 4105.1247 3350.2868 L 4105.0985 3350.3278 L 4105.0857 3350.4156 L 4105.073 3350.5035 L 4105.0323 3350.6147 L 4104.9917 3350.7258 L 4104.9639 3350.9986 L 4104.9362 3351.2713 L 4104.9024 3351.3699 L 4104.8685 3351.4684 L 4104.8508 3351.5757 L 4104.8332 3351.6829 L 4104.8165 3351.942 L 4104.7998 3352.2011 L 4104.7739 3352.2904 L 4104.7479 3352.3798 L 4104.7298 3352.487 L 4104.7116 3352.5943 L 4104.6949 3352.9158 L 4104.6782 3353.2375 L 4104.6706 3353.3715 L 4104.6631 3353.5055 L 4104.6267 3353.5887 L 4104.5903 3353.6718 L 4104.5876 3353.7427 L 4104.5848 3353.8137 L 4104.6196 3353.8651 L 4104.6544 3353.9166 L 4104.6657 3353.9486 L 4104.677 3353.9807 L 4104.7339 3354.0044 L 4104.7907 3354.0281 L 4104.9192 3354.0134 L 4105.0477 3353.9986 L 4105.1115 3353.9533 L 4105.1753 3353.9079 L 4105.2663 3353.8802 L 4105.3572 3353.8525 L 4105.4135 3353.8034 L 4105.4699 3353.7543 L 4105.5181 3353.733 L 4105.5663 3353.7116 L 4105.5853 3353.6686 L 4105.6044 3353.6257 L 4105.6433 3353.6074 L 4105.6821 3353.5893 L 4105.7117 3353.5254 L 4105.7413 3353.4614 L 4105.7761 3353.4422 L 4105.8108 3353.4232 L 4105.8512 3353.3303 L 4105.8916 3353.2375 L 4105.9294 3353.2031 L 4105.9671 3353.1686 L 4105.9937 3353.0749 L 4106.0203 3352.9811 L 4106.0686 3352.9188 L 4106.1168 3352.8564 L 4106.1395 3352.7526 L 4106.1622 3352.6487 L 4106.2033 3352.5933 L 4106.2445 3352.5379 L 4106.2729 3352.3963 L 4106.3013 3352.2547 L 4106.3421 3352.1829 L 4106.3829 3352.1111 L 4106.4169 3351.897 L 4106.4509 3351.6829 L 4106.4886 3351.5967 L 4106.5264 3351.5105 L 4106.5522 3351.2661 L 4106.578 3351.0217 L 4106.6097 3350.9145 L 4106.6413 3350.8073 L 4106.6608 3350.6822 L 4106.6802 3350.5571 L 4106.697 3350.2067 L 4106.7138 3349.8563 L 4106.7328 3349.6885 L 4106.7518 3349.5207 L 4106.7698 3349.3867 L 4106.7878 3349.2527 L 4106.797 3348.5557 L 4106.8062 3347.8588 L 4106.7864 3347.6444 L 4106.7666 3347.4299 L 4106.741 3347.2244 L 4106.7156 3347.019 L 4106.6982 3346.7355 L 4106.6807 3346.4519 L 4106.6609 3346.3334 L 4106.641 3346.2148 L 4106.6092 3346.1313 L 4106.5774 3346.0478 L 4106.5594 3345.8668 L 4106.5412 3345.6857 L 4106.5299 3345.6376 L 4106.5186 3345.5894 L 4106.4789 3345.5076 L 4106.439 3345.4259 L 4106.419 3345.276 L 4106.399 3345.126 L 4106.3736 3345.0635 L 4106.3482 3345.001 L 4106.3239 3344.9736 L 4106.2998 3344.9461 L 4106.2795 3344.821 L 4106.2594 3344.696 L 4106.2088 3344.6101 L 4106.1583 3344.5244 L 4106.1312 3344.4048 L 4106.1043 3344.2854 L 4106.0628 3344.2404 L 4106.0214 3344.1956 L 4105.9955 3344.093 L 4105.9697 3343.9904 L 4105.9239 3343.9345 L 4105.878 3343.8786 L 4105.8568 3343.7972 L 4105.8357 3343.7159 L 4105.791 3343.6698 L 4105.7463 3343.6237 L 4105.7127 3343.5274 L 4105.679 3343.4311 L 4105.6399 3343.4048 L 4105.6008 3343.3785 L 4105.5808 3343.3102 L 4105.5609 3343.2418 L 4105.4936 3343.1583 L 4105.4264 3343.0748 L 4105.4264 3343.0484 L 4105.4264 3343.022 L 4105.3655 3342.9667 L 4105.3045 3342.9113 L 4105.3045 3342.889 L 4105.3045 3342.8667 L 4105.2429 3342.7896 L 4105.1813 3342.7124 L 4105.121 3342.632 L 4105.0607 3342.5516 L 4105.0127 3342.4851 L 4104.9648 3342.4187 L 4104.936 3342.4085 L 4104.9072 3342.3984 L 4104.8787 3342.3365 L 4104.85 3342.2746 L 4104.802 3342.2492 L 4104.754 3342.2236 L 4104.7339 3342.1785 L 4104.7138 3342.1333 L 4104.6642 3342.107 L 4104.6146 3342.0807 L 4104.5945 3342.0356 L 4104.5745 3341.9904 L 4104.5252 3341.9642 L 4104.476 3341.9381 L 4104.452 3341.8922 L 4104.428 3341.8463 L 4104.3968 3341.8361 L 4104.3655 3341.826 L 4104.3187 3341.7688 L 4104.2719 3341.7117 L 4104.2178 3341.678 L 4104.1637 3341.6443 L 4104.1412 3341.6112 L 4104.1185 3341.5782 L 4104.0436 3341.5331 L 4103.9685 3341.488 L 4103.9355 3341.4505 L 4103.9024 3341.413 L 4103.8392 3341.38 L 4103.7761 3341.3468 L 4103.7661 3341.3201 L 4103.7561 3341.2934 L 4103.682 3341.2546 L 4103.608 3341.2158 L 4103.5767 3341.1751 L 4103.5455 3341.1343 L 4103.4668 3341.1068 L 4103.388 3341.0792 L 4103.3458 3341.0278 L 4103.3037 3340.9764 L 4103.2286 3340.9537 L 4103.1535 3340.9311 L 4103.1097 3340.8888 L 4103.066 3340.8464 L 4102.9906 3340.8191 L 4102.9153 3340.7919 L 4102.8648 3340.7483 L 4102.8143 3340.7047 L 4102.7144 3340.6749 L 4102.6145 3340.6452 L 4102.5569 3340.5932 L 4102.4992 3340.5412 L 4102.4781 3340.5412 L 4102.4569 3340.541 L 4102.3921 3340.5226 L 4102.3274 3340.5041 L 4102.2767 3340.4604 L 4102.226 3340.4167 L 4102.1075 3340.3884 L 4101.989 3340.3603 L 4101.9178 3340.3174 L 4101.8465 3340.2745 L 4101.7262 3340.246 L 4101.6058 3340.2173 L 4101.535 3340.1749 L 4101.4641 3340.1326 L 4101.311 3340.1034 L 4101.158 3340.0742 L 4101.0759 3340.0307 L 4100.9939 3339.9872 L 4100.7849 3339.9599 L 4100.5759 3339.9326 L 4100.4888 3339.8979 L 4100.4017 3339.8631 L 4100.3154 3339.8439 L 4100.2291 3339.8247 L 4099.9997 3339.8078 L 4099.7703 3339.791 L 4099.5508 3339.7462 L 4099.3312 3339.7014 L 4098.9085 3339.7028 L 4098.4859 3339.7044 L 4098.3465 3339.7362 M 4094.1231 3348.2536 L 4094.0796 3348.2616 L 4094.0247 3348.2707 L 4093.9699 3348.2797 L 4093.907 3348.3235 L 4093.8442 3348.3671 L 4093.7507 3348.3951 L 4093.6572 3348.423 L 4093.6245 3348.46 L 4093.5919 3348.497 L 4093.5222 3348.533 L 4093.4525 3348.5691 L 4093.3965 3348.6249 L 4093.3405 3348.6808 L 4093.3008 3348.7216 L 4093.261 3348.7624 L 4093.202 3348.8234 L 4093.143 3348.8843 L 4093.1111 3348.9523 L 4093.0791 3349.0203 L 4093.0414 3349.068 L 4093.0038 3349.1157 L 4092.9634 3349.3003 L 4092.923 3349.485 L 4092.9225 3349.5564 L 4092.922 3349.6279 L 4092.9477 3349.7887 L 4092.9735 3349.9495 L 4092.9738 3350.0657 L 4092.9742 3350.1819 L 4093.0001 3350.3686 L 4093.026 3350.5552 L 4093.0593 3350.6813 L 4093.0927 3350.8073 L 4093.1214 3351.1514 L 4093.1501 3351.4955 L 4093.1937 3351.6786 L 4093.2375 3351.8615 L 4093.2532 3352.1028 L 4093.2688 3352.344 L 4093.288 3352.4691 L 4093.3072 3352.5943 L 4093.3399 3352.7193 L 4093.3725 3352.8444 L 4093.3912 3353.1035 L 4093.4099 3353.3626 L 4093.42 3353.443 L 4093.43 3353.5234 L 4093.4724 3353.7108 L 4093.5148 3353.8982 L 4093.5325 3354.1307 L 4093.5502 3354.3633 L 4093.5683 3354.4348 L 4093.5863 3354.5062 L 4093.6174 3354.542 L 4093.6485 3354.5778 L 4093.6704 3354.6492 L 4093.6923 3354.7207 L 4093.7891 3354.843 L 4093.8859 3354.9653 L 4093.9479 3355.0117 L 4094.0099 3355.0581 L 4094.0621 3355.1063 L 4094.1144 3355.1546 L 4094.158 3355.1678 L 4094.2015 3355.1812 L 4094.2576 3355.2314 L 4094.3137 3355.2816 L 4094.3795 3355.3004 L 4094.4453 3355.3191 L 4094.4685 3355.3192 L 4094.4917 3355.3193 L 4094.6152 3355.375 L 4094.7387 3355.4306 L 4094.9506 3355.44 L 4095.1624 3355.4494 L 4095.2521 3355.4273 L 4095.3418 3355.4052 L 4095.3812 3355.3738 L 4095.4206 3355.3424 L 4095.5155 3355.3193 L 4095.6105 3355.2962 L 4095.6706 3355.2362 L 4095.7307 3355.1764 L 4095.7507 3355.1764 L 4095.7706 3355.1764 L 4095.8742 3355.0706 L 4095.9779 3354.9648 L 4096.0322 3354.9037 L 4096.0866 3354.8425 L 4096.1085 3354.7726 L 4096.1303 3354.7028 L 4096.1522 3354.676 L 4096.174 3354.6492 L 4096.2014 3354.5936 L 4096.2288 3354.538 L 4096.2486 3354.3434 L 4096.2684 3354.1489 L 4096.2406 3353.8004 L 4096.213 3353.4519 L 4096.17 3353.2757 L 4096.1271 3353.0994 L 4096.1083 3352.8378 L 4096.0895 3352.5763 L 4096.071 3352.4516 L 4096.0523 3352.3268 L 4096.0357 3352.2819 L 4096.019 3352.2368 L 4096.0023 3352.1475 L 4095.9858 3352.0582 L 4095.9606 3351.7455 L 4095.9353 3351.4327 L 4095.891 3351.2471 L 4095.8466 3351.0615 L 4095.8368 3350.8719 L 4095.827 3350.6822 L 4095.8018 3350.4946 L 4095.7766 3350.307 L 4095.7522 3350.2265 L 4095.7279 3350.1461 L 4095.7099 3350.0211 L 4095.6919 3349.8959 L 4095.6814 3349.7083 L 4095.6709 3349.5207 L 4095.6531 3349.4143 L 4095.6355 3349.3078 L 4095.608 3349.2534 L 4095.5806 3349.1991 L 4095.5486 3349.0675 L 4095.5165 3348.9359 L 4095.4657 3348.8765 L 4095.415 3348.8172 L 4095.4028 3348.7779 L 4095.3907 3348.7387 L 4095.3011 3348.6455 L 4095.2116 3348.5525 L 4095.1683 3348.5289 L 4095.1251 3348.5054 L 4095.0941 3348.4649 L 4095.0631 3348.4244 L 4094.9719 3348.3939 L 4094.8807 3348.3635 L 4094.8539 3348.3397 L 4094.8271 3348.3159 L 4094.7581 3348.2858 L 4094.6891 3348.2556 L 4094.4279 3348.2507 L 4094.1666 3348.2456 L 4094.1231 3348.2536 M 4103.2232 3348.2519 L 4103.2058 3348.2579 L 4103.1422 3348.2688 L 4103.0787 3348.2797 L 4103.0193 3348.3211 L 4102.9598 3348.3624 L 4102.8746 3348.3923 L 4102.7895 3348.422 L 4102.7364 3348.4759 L 4102.6833 3348.5298 L 4102.5657 3348.6445 L 4102.4481 3348.7592 L 4102.4481 3348.7843 L 4102.4481 3348.8093 L 4102.4117 3348.8431 L 4102.3753 3348.877 L 4102.3569 3348.9123 L 4102.3384 3348.9477 L 4102.3076 3349.0644 L 4102.2768 3349.1811 L 4102.2399 3349.2854 L 4102.203 3349.3897 L 4102.1784 3349.7054 L 4102.1539 3350.0211 L 4102.1368 3350.1104 L 4102.1198 3350.1997 L 4102.1028 3350.2453 L 4102.0859 3350.291 L 4102.059 3350.4955 L 4102.0322 3350.7001 L 4102.0224 3350.8822 L 4102.0127 3351.0643 L 4101.9687 3351.2485 L 4101.9247 3351.4327 L 4101.8995 3351.7455 L 4101.8742 3352.0582 L 4101.8577 3352.1475 L 4101.8411 3352.2368 L 4101.8244 3352.2819 L 4101.8077 3352.3268 L 4101.7891 3352.4516 L 4101.7705 3352.5763 L 4101.7517 3352.8378 L 4101.733 3353.0994 L 4101.69 3353.2757 L 4101.6471 3353.4519 L 4101.6198 3353.7914 L 4101.5924 3354.131 L 4101.6033 3354.2739 L 4101.6141 3354.4169 L 4101.6318 3354.5109 L 4101.6495 3354.6049 L 4101.6893 3354.6538 L 4101.729 3354.7028 L 4101.7512 3354.7726 L 4101.7734 3354.8425 L 4101.8278 3354.9032 L 4101.8822 3354.9639 L 4101.9821 3355.0702 L 4102.082 3355.1764 L 4102.099 3355.1764 L 4102.1161 3355.1764 L 4102.1677 3355.2281 L 4102.2193 3355.2798 L 4102.3119 3355.3098 L 4102.4046 3355.3397 L 4102.5004 3355.3875 L 4102.5962 3355.4354 L 4102.8574 3355.4354 L 4103.1187 3355.4354 L 4103.2186 3355.3874 L 4103.3185 3355.3394 L 4103.4256 3355.3112 L 4103.5326 3355.2831 L 4103.59 3355.2314 L 4103.6473 3355.1798 L 4103.6996 3355.168 L 4103.752 3355.1562 L 4103.7749 3355.1278 L 4103.7979 3355.0994 L 4103.8855 3355.033 L 4103.9731 3354.9666 L 4104.071 3354.8437 L 4104.1689 3354.7207 L 4104.1877 3354.6487 L 4104.2064 3354.5768 L 4104.2487 3354.5182 L 4104.2908 3354.4595 L 4104.3008 3354.4025 L 4104.3108 3354.3454 L 4104.3282 3354.1214 L 4104.3456 3353.8973 L 4104.388 3353.7104 L 4104.4304 3353.5234 L 4104.441 3353.4341 L 4104.4516 3353.3447 L 4104.4692 3353.0946 L 4104.4868 3352.8444 L 4104.5198 3352.7193 L 4104.5529 3352.5943 L 4104.572 3352.4691 L 4104.5912 3352.344 L 4104.6069 3352.1028 L 4104.6226 3351.8615 L 4104.6664 3351.6786 L 4104.71 3351.4955 L 4104.7387 3351.1514 L 4104.7674 3350.8073 L 4104.8008 3350.6813 L 4104.8341 3350.5552 L 4104.86 3350.3686 L 4104.8859 3350.1819 L 4104.8862 3350.0691 L 4104.8865 3349.9562 L 4104.9152 3349.7675 L 4104.9438 3349.5787 L 4104.9158 3349.4246 L 4104.8879 3349.2705 L 4104.8765 3349.2035 L 4104.8652 3349.1363 L 4104.8133 3349.0695 L 4104.7614 3349.0025 L 4104.7362 3348.9406 L 4104.711 3348.8787 L 4104.6551 3348.8205 L 4104.5991 3348.7624 L 4104.56 3348.7216 L 4104.521 3348.6808 L 4104.4519 3348.6138 L 4104.3828 3348.5468 L 4104.3664 3348.5468 L 4104.3499 3348.5468 L 4104.2769 3348.4843 L 4104.204 3348.4217 L 4104.1055 3348.3931 L 4104.0069 3348.3646 L 4103.946 3348.3226 L 4103.885 3348.2806 L 4103.7718 3348.2619 L 4103.6586 3348.2433 L 4103.4497 3348.2446 L 4103.2406 3348.2459 L 4103.2232 3348.2519" stroke="none" layerid="3" id="gge81824"></path><polyline points="4045.7085 2891.7032 4053.1892 2891.7032" stroke-width="1"  stroke-linecap="round" fill="none" layerid="10" net="" id="gge31429" locked="0" /><polyline points="4045.9846 2879.1058 4053.4646 2879.1058" stroke-width="1"  stroke-linecap="round" fill="none" layerid="10" net="" id="gge31428" locked="0" /><polyline points="4134.2911 2891.7031 4141.772 2891.7031" stroke-width="1"  stroke-linecap="round" fill="none" layerid="10" net="" id="gge31421" locked="0" /><polyline points="4134.5675 2879.1057 4142.0474 2879.1057" stroke-width="1"  stroke-linecap="round" fill="none" layerid="10" net="" id="gge31420" locked="0" /><polyline points="4134.2915 3373.9868 4141.772 3373.9868" stroke-width="1"  stroke-linecap="round" fill="none" layerid="10" net="" id="gge31387" locked="0" /><polyline points="4134.5674 3361.3894 4142.0473 3361.3894" stroke-width="1"  stroke-linecap="round" fill="none" layerid="10" net="" id="gge31386" locked="0" /><polyline points="4045.7086 3373.9869 4053.1893 3373.9869" stroke-width="1"  stroke-linecap="round" fill="none" layerid="10" net="" id="gge31351" locked="0" /><polyline points="4045.9847 3361.3895 4053.4647 3361.3895" stroke-width="1"  stroke-linecap="round" fill="none" layerid="10" net="" id="gge31350" locked="0" /><polyline points="4050.315 2873.5942 4177.4752 2873.5942 4177.4752 3379.5041 4019.995 3379.5041 4019.995 2873.5942 4050.315 2873.5942" stroke-width="1"  stroke-linecap="round" fill="none" layerid="10" net="" id="gge18472" locked="0" /><path d="M 4053.4839 2879.1064 A 6.2992 6.2992 0 1 1 4053.3153 2891.7033" locked="0"  fill="none" stroke-width="1" c_helper_type="arc2" net="S$15916" layerid="10" id="gge31298" /><path d="M 4045.9769 2879.1192 A 6.2992 6.2992 0 1 0 4045.7088 2891.7033" locked="0"  fill="none" stroke-width="1" c_helper_type="arc2" net="S$15916" layerid="10" id="gge31299" /><path d="M 4045.9769 3361.403 A 6.2992 6.2992 0 1 0 4045.7088 3373.9871" locked="0"  fill="none" stroke-width="1" c_helper_type="arc2" net="S$15916" layerid="10" id="gge31332" /><path d="M 4053.4839 3361.3902 A 6.2992 6.2992 0 1 1 4053.3153 3373.9871" locked="0"  fill="none" stroke-width="1" c_helper_type="arc2" net="S$15916" layerid="10" id="gge31333" /><path d="M 4142.0666 3361.3902 A 6.2992 6.2992 0 1 1 4141.898 3373.9871" locked="0"  fill="none" stroke-width="1" c_helper_type="arc2" net="S$15916" layerid="10" id="gge31374" /><path d="M 4134.5598 3361.403 A 6.2992 6.2992 0 1 0 4134.2915 3373.9871" locked="0"  fill="none" stroke-width="1" c_helper_type="arc2" net="S$15916" layerid="10" id="gge31375" /><path d="M 4134.5596 2879.1192 A 6.2992 6.2992 0 1 0 4134.2915 2891.7033" locked="0"  fill="none" stroke-width="1" c_helper_type="arc2" net="S$15916" layerid="10" id="gge31408" /><path d="M 4142.0666 2879.1064 A 6.2992 6.2992 0 1 1 4141.898 2891.7033" locked="0"  fill="none" stroke-width="1" c_helper_type="arc2" net="S$15916" layerid="10" id="gge31409" /><circle cx="4141.908" cy="3022.02" r="19.685" stroke-width="0.9843" fill="none" layerid="10" id="gge30636" locked="0"  net="S$14516" transformarc="circle_gge30637,circle_gge30638"/><circle cx="4055.433" cy="3238.555" r="6.299" stroke-width="0.9843" fill="none" layerid="10" id="gge30670" locked="0"  net="S$14516" transformarc="circle_gge30671,circle_gge30672"/><circle cx="4141.908" cy="3104.106" r="14.567" stroke-width="0.9843" fill="none" layerid="10" id="gge30742" locked="0"  net="S$14516" transformarc="circle_gge30743,circle_gge30744"/><circle cx="4055.308" cy="3022.076" r="12.205" stroke-width="0.9843" fill="none" layerid="10" id="gge30794" locked="0"  net="S$14516" transformarc="circle_gge30795,circle_gge30796"/><circle cx="4055.433" cy="3221.075" r="6.299" stroke-width="0.9843" fill="none" layerid="10" id="gge40607" locked="0"  net="S$14516" transformarc="circle_gge40610,circle_gge40613"/><circle cx="4055.433" cy="3203.595" r="6.299" stroke-width="0.9843" fill="none" layerid="10" id="gge40646" locked="0"  net="S$14516" transformarc="circle_gge40649,circle_gge40652"/><circle cx="4055.433" cy="3186.114" r="6.299" stroke-width="0.9843" fill="none" layerid="10" id="gge40673" locked="0"  net="S$14516" transformarc="circle_gge40676,circle_gge40679"/><circle cx="4055.433" cy="3168.634" r="6.299" stroke-width="0.9843" fill="none" layerid="10" id="gge40700" locked="0"  net="S$14516" transformarc="circle_gge40703,circle_gge40706"/><circle cx="4055.433" cy="3151.153" r="6.299" stroke-width="0.9843" fill="none" layerid="10" id="gge40727" locked="0"  net="S$14516" transformarc="circle_gge40730,circle_gge40733"/><circle cx="4142.047" cy="2962.177" r="19.685" stroke-width="0.9843" fill="none" layerid="10" id="gge50093" locked="0"  net="S$14516" transformarc="circle_gge50102,circle_gge50105"/><circle cx="4126.299" cy="3194.461" r="14.567" stroke-width="0.9843" fill="none" layerid="10" id="gge54968" locked="0"  net="S$14516" transformarc="circle_gge54971,circle_gge54974"/><circle cx="4055.308" cy="3103.768" r="12.205" stroke-width="0.9843" fill="none" layerid="10" id="gge56231" locked="0"  net="S$14516" transformarc="circle_gge56237,circle_gge56240"/><circle cx="4055.308" cy="2962.826" r="12.205" stroke-width="0.9843" fill="none" layerid="10" id="gge56234" locked="0"  net="S$14516" transformarc="circle_gge56243,circle_gge56246"/><circle cx="4098.74" cy="3300.76" r="14.567" stroke-width="0.9843" fill="none" layerid="10" id="gge61223" locked="0"  net="S$14516" transformarc="circle_gge61226,circle_gge61229"/></svg>